<mxfile host="65bd71144e">
    <diagram id="VhWwtlwqrjvGod_Ep1HX" name="wireframe">
        <mxGraphModel dx="1000" dy="493" grid="0" gridSize="10" guides="1" tooltips="1" connect="1" arrows="1" fold="1" page="0" pageScale="1" pageWidth="1100" pageHeight="1200" math="0" shadow="0">
            <root>
                <mxCell id="0"/>
                <mxCell id="1" parent="0"/>
                <mxCell id="iwrUURkHOKJRBUt6us-h-46" value="" style="rounded=0;whiteSpace=wrap;html=1;fillColor=none;" parent="1" vertex="1">
                    <mxGeometry x="190" y="1190" width="390" height="340" as="geometry"/>
                </mxCell>
                <mxCell id="iwrUURkHOKJRBUt6us-h-79" value="" style="rounded=0;whiteSpace=wrap;html=1;fillColor=none;" parent="1" vertex="1">
                    <mxGeometry x="190" y="770" width="390" height="310" as="geometry"/>
                </mxCell>
                <mxCell id="iwrUURkHOKJRBUt6us-h-81" value="我的課程" style="rounded=0;whiteSpace=wrap;html=1;fillColor=none;" parent="1" vertex="1">
                    <mxGeometry x="190" y="770" width="320" height="30" as="geometry"/>
                </mxCell>
                <mxCell id="iwrUURkHOKJRBUt6us-h-74" value="" style="rounded=0;whiteSpace=wrap;html=1;fillColor=none;" parent="1" vertex="1">
                    <mxGeometry x="190" y="1500" width="390" height="30" as="geometry"/>
                </mxCell>
                <mxCell id="iwrUURkHOKJRBUt6us-h-1" value="" style="rounded=0;whiteSpace=wrap;html=1;fillColor=none;" parent="1" vertex="1">
                    <mxGeometry x="190" y="320" width="390" height="340" as="geometry"/>
                </mxCell>
                <mxCell id="iwrUURkHOKJRBUt6us-h-2" value="課程活動 1" style="rounded=0;whiteSpace=wrap;html=1;" parent="1" vertex="1">
                    <mxGeometry x="210" y="370" width="220" height="20" as="geometry"/>
                </mxCell>
                <mxCell id="iwrUURkHOKJRBUt6us-h-10" value="..." style="rounded=0;whiteSpace=wrap;html=1;" parent="1" vertex="1">
                    <mxGeometry x="210" y="400" width="220" height="20" as="geometry"/>
                </mxCell>
                <mxCell id="iwrUURkHOKJRBUt6us-h-13" value="..." style="rounded=0;whiteSpace=wrap;html=1;" parent="1" vertex="1">
                    <mxGeometry x="210" y="430" width="220" height="20" as="geometry"/>
                </mxCell>
                <mxCell id="iwrUURkHOKJRBUt6us-h-19" value="..." style="rounded=0;whiteSpace=wrap;html=1;" parent="1" vertex="1">
                    <mxGeometry x="210" y="460" width="220" height="20" as="geometry"/>
                </mxCell>
                <mxCell id="iwrUURkHOKJRBUt6us-h-22" value="..." style="rounded=0;whiteSpace=wrap;html=1;" parent="1" vertex="1">
                    <mxGeometry x="210" y="560" width="220" height="20" as="geometry"/>
                </mxCell>
                <mxCell id="iwrUURkHOKJRBUt6us-h-28" value="課程管理" style="rounded=0;whiteSpace=wrap;html=1;fillColor=none;" parent="1" vertex="1">
                    <mxGeometry x="190" y="320" width="320" height="30" as="geometry"/>
                </mxCell>
                <mxCell id="iwrUURkHOKJRBUt6us-h-29" value="RichardW" style="rounded=0;whiteSpace=wrap;html=1;fillColor=none;" parent="1" vertex="1">
                    <mxGeometry x="510" y="320" width="70" height="30" as="geometry"/>
                </mxCell>
                <mxCell id="iwrUURkHOKJRBUt6us-h-30" value="" style="rounded=0;whiteSpace=wrap;html=1;fillColor=none;" parent="1" vertex="1">
                    <mxGeometry x="450" y="350" width="130" height="250" as="geometry"/>
                </mxCell>
                <mxCell id="iwrUURkHOKJRBUt6us-h-31" value="課程活動 1" style="rounded=0;whiteSpace=wrap;html=1;" parent="1" vertex="1">
                    <mxGeometry x="455" y="360" width="120" height="20" as="geometry"/>
                </mxCell>
                <mxCell id="iwrUURkHOKJRBUt6us-h-32" value="管理者" style="rounded=0;whiteSpace=wrap;html=1;fillColor=none;verticalAlign=top;strokeColor=none;" parent="1" vertex="1">
                    <mxGeometry x="455" y="420" width="120" height="90" as="geometry"/>
                </mxCell>
                <mxCell id="iwrUURkHOKJRBUt6us-h-35" value="A" style="rounded=0;whiteSpace=wrap;html=1;fillColor=none;" parent="1" vertex="1">
                    <mxGeometry x="460" y="450" width="110" height="20" as="geometry"/>
                </mxCell>
                <mxCell id="iwrUURkHOKJRBUt6us-h-37" value="B" style="rounded=0;whiteSpace=wrap;html=1;fillColor=none;" parent="1" vertex="1">
                    <mxGeometry x="460" y="475" width="110" height="20" as="geometry"/>
                </mxCell>
                <mxCell id="iwrUURkHOKJRBUt6us-h-38" value="參與者" style="rounded=0;whiteSpace=wrap;html=1;fillColor=none;verticalAlign=top;strokeColor=none;" parent="1" vertex="1">
                    <mxGeometry x="455" y="510" width="120" height="90" as="geometry"/>
                </mxCell>
                <mxCell id="iwrUURkHOKJRBUt6us-h-39" value="C" style="rounded=0;whiteSpace=wrap;html=1;fillColor=none;" parent="1" vertex="1">
                    <mxGeometry x="460" y="540" width="110" height="20" as="geometry"/>
                </mxCell>
                <mxCell id="iwrUURkHOKJRBUt6us-h-40" value="D" style="rounded=0;whiteSpace=wrap;html=1;fillColor=none;" parent="1" vertex="1">
                    <mxGeometry x="460" y="570" width="110" height="20" as="geometry"/>
                </mxCell>
                <mxCell id="iwrUURkHOKJRBUt6us-h-41" value="2023/1/1 ~ 2024/1/1" style="rounded=0;whiteSpace=wrap;html=1;fillColor=none;verticalAlign=top;" parent="1" vertex="1">
                    <mxGeometry x="455" y="385" width="120" height="25" as="geometry"/>
                </mxCell>
                <mxCell id="iwrUURkHOKJRBUt6us-h-42" value="新增課程" style="rounded=0;whiteSpace=wrap;html=1;" parent="1" vertex="1">
                    <mxGeometry x="420" y="325" width="80" height="20" as="geometry"/>
                </mxCell>
                <mxCell id="iwrUURkHOKJRBUt6us-h-43" value="" style="rounded=0;whiteSpace=wrap;html=1;fillColor=none;" parent="1" vertex="1">
                    <mxGeometry x="450" y="600" width="130" height="60" as="geometry"/>
                </mxCell>
                <mxCell id="iwrUURkHOKJRBUt6us-h-44" value="儲存 / 新增" style="rounded=0;whiteSpace=wrap;html=1;" parent="1" vertex="1">
                    <mxGeometry x="485" y="630" width="65" height="20" as="geometry"/>
                </mxCell>
                <mxCell id="iwrUURkHOKJRBUt6us-h-45" value="取消" style="rounded=0;whiteSpace=wrap;html=1;" parent="1" vertex="1">
                    <mxGeometry x="470" y="605" width="40" height="20" as="geometry"/>
                </mxCell>
                <mxCell id="iwrUURkHOKJRBUt6us-h-47" value="" style="rounded=0;whiteSpace=wrap;html=1;" parent="1" vertex="1">
                    <mxGeometry x="210" y="1230" width="330" height="230" as="geometry"/>
                </mxCell>
                <mxCell id="iwrUURkHOKJRBUt6us-h-57" value="我的課程" style="rounded=0;whiteSpace=wrap;html=1;fillColor=none;" parent="1" vertex="1">
                    <mxGeometry x="190" y="1190" width="320" height="30" as="geometry"/>
                </mxCell>
                <mxCell id="iwrUURkHOKJRBUt6us-h-58" value="RichardW" style="rounded=0;whiteSpace=wrap;html=1;fillColor=none;" parent="1" vertex="1">
                    <mxGeometry x="510" y="1190" width="70" height="30" as="geometry"/>
                </mxCell>
                <mxCell id="iwrUURkHOKJRBUt6us-h-72" value="上一週" style="rounded=0;whiteSpace=wrap;html=1;" parent="1" vertex="1">
                    <mxGeometry x="450" y="1505" width="60" height="20" as="geometry"/>
                </mxCell>
                <mxCell id="iwrUURkHOKJRBUt6us-h-73" value="下一週" style="rounded=0;whiteSpace=wrap;html=1;" parent="1" vertex="1">
                    <mxGeometry x="515" y="1505" width="60" height="20" as="geometry"/>
                </mxCell>
                <mxCell id="iwrUURkHOKJRBUt6us-h-75" value="&amp;nbsp;一&amp;nbsp; &amp;nbsp; &amp;nbsp; &amp;nbsp; &amp;nbsp; 二&amp;nbsp; &amp;nbsp; &amp;nbsp; &amp;nbsp; &amp;nbsp; &amp;nbsp; 三&amp;nbsp; &amp;nbsp; &amp;nbsp; &amp;nbsp; &amp;nbsp; &amp;nbsp; &amp;nbsp; 四&amp;nbsp; &amp;nbsp; &amp;nbsp; &amp;nbsp; &amp;nbsp; &amp;nbsp; 五" style="rounded=0;whiteSpace=wrap;html=1;" parent="1" vertex="1">
                    <mxGeometry x="210" y="1230" width="330" height="20" as="geometry"/>
                </mxCell>
                <mxCell id="iwrUURkHOKJRBUt6us-h-76" value="08:00&lt;br&gt;09:00&lt;br&gt;..&lt;br&gt;&lt;br&gt;&lt;br&gt;&lt;br&gt;&lt;br&gt;&lt;br&gt;&lt;br&gt;&lt;br&gt;&lt;br&gt;17:00" style="rounded=0;whiteSpace=wrap;html=1;" parent="1" vertex="1">
                    <mxGeometry x="210" y="1250" width="40" height="210" as="geometry"/>
                </mxCell>
                <mxCell id="iwrUURkHOKJRBUt6us-h-78" value="" style="rounded=0;whiteSpace=wrap;html=1;fillColor=none;" parent="1" vertex="1">
                    <mxGeometry x="190" y="1080" width="390" height="30" as="geometry"/>
                </mxCell>
                <mxCell id="iwrUURkHOKJRBUt6us-h-80" value="" style="rounded=0;whiteSpace=wrap;html=1;" parent="1" vertex="1">
                    <mxGeometry x="210" y="810" width="270" height="230" as="geometry"/>
                </mxCell>
                <mxCell id="iwrUURkHOKJRBUt6us-h-82" value="RichardW" style="rounded=0;whiteSpace=wrap;html=1;fillColor=none;" parent="1" vertex="1">
                    <mxGeometry x="510" y="770" width="70" height="30" as="geometry"/>
                </mxCell>
                <mxCell id="iwrUURkHOKJRBUt6us-h-83" value="上一週" style="rounded=0;whiteSpace=wrap;html=1;" parent="1" vertex="1">
                    <mxGeometry x="440" y="1085" width="60" height="20" as="geometry"/>
                </mxCell>
                <mxCell id="iwrUURkHOKJRBUt6us-h-84" value="下一週" style="rounded=0;whiteSpace=wrap;html=1;" parent="1" vertex="1">
                    <mxGeometry x="505" y="1085" width="60" height="20" as="geometry"/>
                </mxCell>
                <mxCell id="iwrUURkHOKJRBUt6us-h-85" value="&amp;nbsp;一&amp;nbsp; &amp;nbsp; &amp;nbsp; &amp;nbsp; &amp;nbsp; 二&amp;nbsp; &amp;nbsp; &amp;nbsp; &amp;nbsp; &amp;nbsp; &amp;nbsp; 三&amp;nbsp; &amp;nbsp; &amp;nbsp; &amp;nbsp; &amp;nbsp; &amp;nbsp; &amp;nbsp; 四&amp;nbsp; &amp;nbsp; &amp;nbsp; &amp;nbsp; &amp;nbsp; &amp;nbsp; 五" style="rounded=0;whiteSpace=wrap;html=1;" parent="1" vertex="1">
                    <mxGeometry x="210" y="810" width="270" height="20" as="geometry"/>
                </mxCell>
                <mxCell id="iwrUURkHOKJRBUt6us-h-86" value="08:00&lt;br&gt;09:00&lt;br&gt;..&lt;br&gt;&lt;br&gt;&lt;br&gt;&lt;br&gt;&lt;br&gt;&lt;br&gt;&lt;br&gt;&lt;br&gt;&lt;br&gt;17:00" style="rounded=0;whiteSpace=wrap;html=1;" parent="1" vertex="1">
                    <mxGeometry x="210" y="830" width="40" height="210" as="geometry"/>
                </mxCell>
                <mxCell id="iwrUURkHOKJRBUt6us-h-87" value="" style="rounded=0;whiteSpace=wrap;html=1;" parent="1" vertex="1">
                    <mxGeometry x="490" y="800" width="90" height="250" as="geometry"/>
                </mxCell>
                <mxCell id="iwrUURkHOKJRBUt6us-h-88" value="課程名稱" style="rounded=0;whiteSpace=wrap;html=1;" parent="1" vertex="1">
                    <mxGeometry x="505" y="875" width="60" height="20" as="geometry"/>
                </mxCell>
                <mxCell id="iwrUURkHOKJRBUt6us-h-89" value="時間" style="rounded=0;whiteSpace=wrap;html=1;" parent="1" vertex="1">
                    <mxGeometry x="505" y="910" width="60" height="20" as="geometry"/>
                </mxCell>
                <mxCell id="iwrUURkHOKJRBUt6us-h-90" value="講師" style="rounded=0;whiteSpace=wrap;html=1;" parent="1" vertex="1">
                    <mxGeometry x="505" y="940" width="60" height="20" as="geometry"/>
                </mxCell>
                <mxCell id="iwrUURkHOKJRBUt6us-h-92" value="連結" style="rounded=0;whiteSpace=wrap;html=1;" parent="1" vertex="1">
                    <mxGeometry x="505" y="970" width="60" height="20" as="geometry"/>
                </mxCell>
                <mxCell id="iwrUURkHOKJRBUt6us-h-93" value="X" style="rounded=0;whiteSpace=wrap;html=1;" parent="1" vertex="1">
                    <mxGeometry x="560" y="810" width="15" height="20" as="geometry"/>
                </mxCell>
                <mxCell id="iwrUURkHOKJRBUt6us-h-94" value="/admin" style="rounded=0;whiteSpace=wrap;html=1;" parent="1" vertex="1">
                    <mxGeometry x="190" y="290" width="90" height="20" as="geometry"/>
                </mxCell>
                <mxCell id="iwrUURkHOKJRBUt6us-h-95" value="/edit/course/my-course-1/weeks/20230904" style="rounded=0;whiteSpace=wrap;html=1;" parent="1" vertex="1">
                    <mxGeometry x="190" y="738" width="270" height="20" as="geometry"/>
                </mxCell>
                <mxCell id="iwrUURkHOKJRBUt6us-h-96" value="/view/courses/my-course-1/weeks/20230904" style="rounded=0;whiteSpace=wrap;html=1;" parent="1" vertex="1">
                    <mxGeometry x="190" y="1161" width="280" height="20" as="geometry"/>
                </mxCell>
                <mxCell id="iwrUURkHOKJRBUt6us-h-98" value="刪除" style="rounded=0;whiteSpace=wrap;html=1;" parent="1" vertex="1">
                    <mxGeometry x="520" y="605" width="40" height="20" as="geometry"/>
                </mxCell>
                <mxCell id="iwrUURkHOKJRBUt6us-h-100" value="" style="rounded=0;whiteSpace=wrap;html=1;" parent="1" vertex="1">
                    <mxGeometry x="490" y="1020" width="90" height="60" as="geometry"/>
                </mxCell>
                <mxCell id="iwrUURkHOKJRBUt6us-h-101" value="儲存 / 新增" style="rounded=0;whiteSpace=wrap;html=1;" parent="1" vertex="1">
                    <mxGeometry x="505" y="1055" width="65" height="20" as="geometry"/>
                </mxCell>
                <mxCell id="iwrUURkHOKJRBUt6us-h-102" value="取消" style="rounded=0;whiteSpace=wrap;html=1;" parent="1" vertex="1">
                    <mxGeometry x="490" y="1030" width="40" height="20" as="geometry"/>
                </mxCell>
                <mxCell id="iwrUURkHOKJRBUt6us-h-103" value="刪除" style="rounded=0;whiteSpace=wrap;html=1;" parent="1" vertex="1">
                    <mxGeometry x="540" y="1030" width="40" height="20" as="geometry"/>
                </mxCell>
            </root>
        </mxGraphModel>
    </diagram>
    <diagram id="iztttTF1xbX3WfVwwZqR" name="either">
        <mxGraphModel dx="1225" dy="697" grid="0" gridSize="10" guides="1" tooltips="1" connect="1" arrows="1" fold="1" page="0" pageScale="1" pageWidth="850" pageHeight="1100" math="0" shadow="0">
            <root>
                <mxCell id="0"/>
                <mxCell id="1" parent="0"/>
                <mxCell id="or0kyJyvzUHvuAnAvBDq-84" style="edgeStyle=orthogonalEdgeStyle;html=1;fontSize=24;fontColor=#FF3333;" parent="1" source="or0kyJyvzUHvuAnAvBDq-68" target="or0kyJyvzUHvuAnAvBDq-76" edge="1">
                    <mxGeometry relative="1" as="geometry"/>
                </mxCell>
                <mxCell id="or0kyJyvzUHvuAnAvBDq-68" value="" style="rounded=0;whiteSpace=wrap;html=1;fillColor=#f5f5f5;fontColor=#333333;strokeColor=#666666;" parent="1" vertex="1">
                    <mxGeometry x="440" y="450" width="190" height="130" as="geometry"/>
                </mxCell>
                <mxCell id="or0kyJyvzUHvuAnAvBDq-69" value="" style="rounded=0;whiteSpace=wrap;html=1;fillColor=#d5e8d4;strokeColor=#82b366;" parent="1" vertex="1">
                    <mxGeometry x="520" y="460" width="100" height="110" as="geometry"/>
                </mxCell>
                <mxCell id="or0kyJyvzUHvuAnAvBDq-70" value="" style="rounded=0;whiteSpace=wrap;html=1;fillColor=#f5f5f5;strokeColor=#666666;fontColor=#333333;" parent="1" vertex="1">
                    <mxGeometry x="530" y="470" width="82" height="93" as="geometry"/>
                </mxCell>
                <mxCell id="or0kyJyvzUHvuAnAvBDq-71" value="Either" style="rounded=0;whiteSpace=wrap;html=1;fillColor=none;strokeColor=none;" parent="1" vertex="1">
                    <mxGeometry x="450" y="450" width="30" height="20" as="geometry"/>
                </mxCell>
                <mxCell id="or0kyJyvzUHvuAnAvBDq-72" value="Error1" style="rounded=0;whiteSpace=wrap;html=1;fillColor=#f8cecc;strokeColor=#b85450;" parent="1" vertex="1">
                    <mxGeometry x="455" y="520" width="50" height="20" as="geometry"/>
                </mxCell>
                <mxCell id="or0kyJyvzUHvuAnAvBDq-73" value="Either" style="rounded=0;whiteSpace=wrap;html=1;fillColor=none;strokeColor=none;" parent="1" vertex="1">
                    <mxGeometry x="538" y="470" width="30" height="20" as="geometry"/>
                </mxCell>
                <mxCell id="or0kyJyvzUHvuAnAvBDq-74" value="Error2" style="rounded=0;whiteSpace=wrap;html=1;fillColor=#f8cecc;strokeColor=#b85450;" parent="1" vertex="1">
                    <mxGeometry x="545" y="530" width="50" height="20" as="geometry"/>
                </mxCell>
                <mxCell id="or0kyJyvzUHvuAnAvBDq-75" value="Output2" style="rounded=0;whiteSpace=wrap;html=1;fillColor=#d5e8d4;strokeColor=#82b366;" parent="1" vertex="1">
                    <mxGeometry x="545" y="493" width="50" height="20" as="geometry"/>
                </mxCell>
                <mxCell id="or0kyJyvzUHvuAnAvBDq-76" value="" style="rounded=0;whiteSpace=wrap;html=1;fillColor=#f5f5f5;fontColor=#333333;strokeColor=#666666;" parent="1" vertex="1">
                    <mxGeometry x="706" y="450" width="151" height="130" as="geometry"/>
                </mxCell>
                <mxCell id="or0kyJyvzUHvuAnAvBDq-79" value="Either" style="rounded=0;whiteSpace=wrap;html=1;fillColor=none;strokeColor=none;" parent="1" vertex="1">
                    <mxGeometry x="716" y="450" width="30" height="20" as="geometry"/>
                </mxCell>
                <mxCell id="or0kyJyvzUHvuAnAvBDq-80" value="Error1 or Error2" style="rounded=0;whiteSpace=wrap;html=1;fillColor=#f8cecc;strokeColor=#b85450;" parent="1" vertex="1">
                    <mxGeometry x="734" y="530" width="102" height="20" as="geometry"/>
                </mxCell>
                <mxCell id="or0kyJyvzUHvuAnAvBDq-83" value="Output2" style="rounded=0;whiteSpace=wrap;html=1;fillColor=#d5e8d4;strokeColor=#82b366;" parent="1" vertex="1">
                    <mxGeometry x="753" y="482" width="50" height="20" as="geometry"/>
                </mxCell>
                <mxCell id="or0kyJyvzUHvuAnAvBDq-53" value="" style="rounded=0;whiteSpace=wrap;html=1;fillColor=#f5f5f5;fontColor=#333333;strokeColor=#666666;" parent="1" vertex="1">
                    <mxGeometry x="440" y="450" width="190" height="130" as="geometry"/>
                </mxCell>
                <mxCell id="or0kyJyvzUHvuAnAvBDq-59" value="" style="rounded=0;whiteSpace=wrap;html=1;fillColor=#d5e8d4;strokeColor=#82b366;" parent="1" vertex="1">
                    <mxGeometry x="520" y="460" width="100" height="110" as="geometry"/>
                </mxCell>
                <mxCell id="or0kyJyvzUHvuAnAvBDq-65" value="" style="rounded=0;whiteSpace=wrap;html=1;fillColor=#f5f5f5;strokeColor=#666666;fontColor=#333333;" parent="1" vertex="1">
                    <mxGeometry x="530" y="470" width="82" height="93" as="geometry"/>
                </mxCell>
                <mxCell id="or0kyJyvzUHvuAnAvBDq-43" value="" style="rounded=0;whiteSpace=wrap;html=1;fillColor=#f5f5f5;fontColor=#333333;strokeColor=#666666;" parent="1" vertex="1">
                    <mxGeometry x="440" y="180" width="160" height="70" as="geometry"/>
                </mxCell>
                <mxCell id="or0kyJyvzUHvuAnAvBDq-1" value="" style="rounded=1;whiteSpace=wrap;html=1;fillColor=#f5f5f5;fontColor=#333333;strokeColor=#666666;" parent="1" vertex="1">
                    <mxGeometry x="180" y="180" width="140" height="70" as="geometry"/>
                </mxCell>
                <mxCell id="or0kyJyvzUHvuAnAvBDq-2" value="Either" style="rounded=0;whiteSpace=wrap;html=1;fillColor=none;strokeColor=none;" parent="1" vertex="1">
                    <mxGeometry x="190" y="180" width="30" height="20" as="geometry"/>
                </mxCell>
                <mxCell id="or0kyJyvzUHvuAnAvBDq-3" value="Error1" style="rounded=0;whiteSpace=wrap;html=1;fillColor=#f8cecc;strokeColor=#b85450;" parent="1" vertex="1">
                    <mxGeometry x="245" y="220" width="40" height="20" as="geometry"/>
                </mxCell>
                <mxCell id="or0kyJyvzUHvuAnAvBDq-4" value="Output1" style="rounded=0;whiteSpace=wrap;html=1;fillColor=#d5e8d4;strokeColor=#82b366;" parent="1" vertex="1">
                    <mxGeometry x="240" y="190" width="50" height="20" as="geometry"/>
                </mxCell>
                <mxCell id="or0kyJyvzUHvuAnAvBDq-22" value="Either" style="rounded=0;whiteSpace=wrap;html=1;fillColor=none;strokeColor=none;" parent="1" vertex="1">
                    <mxGeometry x="450" y="180" width="30" height="20" as="geometry"/>
                </mxCell>
                <mxCell id="or0kyJyvzUHvuAnAvBDq-24" value="Output2" style="rounded=0;whiteSpace=wrap;html=1;fillColor=#d5e8d4;strokeColor=#82b366;" parent="1" vertex="1">
                    <mxGeometry x="520" y="190" width="50" height="20" as="geometry"/>
                </mxCell>
                <mxCell id="or0kyJyvzUHvuAnAvBDq-25" style="edgeStyle=orthogonalEdgeStyle;html=1;" parent="1" source="or0kyJyvzUHvuAnAvBDq-4" target="or0kyJyvzUHvuAnAvBDq-21" edge="1">
                    <mxGeometry relative="1" as="geometry">
                        <mxPoint x="270" y="200" as="sourcePoint"/>
                        <Array as="points">
                            <mxPoint x="420" y="200"/>
                            <mxPoint x="420" y="200"/>
                        </Array>
                    </mxGeometry>
                </mxCell>
                <mxCell id="or0kyJyvzUHvuAnAvBDq-26" value="callback" style="rounded=1;whiteSpace=wrap;html=1;fillColor=#fff2cc;strokeColor=#d6b656;" parent="1" vertex="1">
                    <mxGeometry x="340" y="190" width="80" height="20" as="geometry"/>
                </mxCell>
                <mxCell id="or0kyJyvzUHvuAnAvBDq-28" value="Error1 or Error2" style="rounded=0;whiteSpace=wrap;html=1;fillColor=#f8cecc;strokeColor=#b85450;" parent="1" vertex="1">
                    <mxGeometry x="461" y="220" width="109" height="20" as="geometry"/>
                </mxCell>
                <mxCell id="or0kyJyvzUHvuAnAvBDq-29" value="" style="rounded=0;whiteSpace=wrap;html=1;fillColor=#f5f5f5;fontColor=#333333;strokeColor=#666666;" parent="1" vertex="1">
                    <mxGeometry x="180" y="340" width="140" height="70" as="geometry"/>
                </mxCell>
                <mxCell id="or0kyJyvzUHvuAnAvBDq-31" value="Either" style="rounded=0;whiteSpace=wrap;html=1;fillColor=none;strokeColor=none;" parent="1" vertex="1">
                    <mxGeometry x="190" y="340" width="30" height="20" as="geometry"/>
                </mxCell>
                <mxCell id="or0kyJyvzUHvuAnAvBDq-32" value="Error1" style="rounded=0;whiteSpace=wrap;html=1;fillColor=#f8cecc;strokeColor=#b85450;" parent="1" vertex="1">
                    <mxGeometry x="245" y="380" width="40" height="20" as="geometry"/>
                </mxCell>
                <mxCell id="or0kyJyvzUHvuAnAvBDq-33" value="Output1" style="rounded=0;whiteSpace=wrap;html=1;fillColor=#d5e8d4;strokeColor=#82b366;" parent="1" vertex="1">
                    <mxGeometry x="240" y="350" width="50" height="20" as="geometry"/>
                </mxCell>
                <mxCell id="or0kyJyvzUHvuAnAvBDq-34" value="" style="rounded=0;whiteSpace=wrap;html=1;fillColor=#f5f5f5;fontColor=#333333;strokeColor=#666666;" parent="1" vertex="1">
                    <mxGeometry x="440" y="340" width="190" height="70" as="geometry"/>
                </mxCell>
                <mxCell id="or0kyJyvzUHvuAnAvBDq-36" value="Either" style="rounded=0;whiteSpace=wrap;html=1;fillColor=none;strokeColor=none;" parent="1" vertex="1">
                    <mxGeometry x="450" y="340" width="30" height="20" as="geometry"/>
                </mxCell>
                <mxCell id="or0kyJyvzUHvuAnAvBDq-37" value="Error1" style="rounded=0;whiteSpace=wrap;html=1;fillColor=#f8cecc;strokeColor=#b85450;" parent="1" vertex="1">
                    <mxGeometry x="520" y="380" width="50" height="20" as="geometry"/>
                </mxCell>
                <mxCell id="or0kyJyvzUHvuAnAvBDq-39" style="edgeStyle=orthogonalEdgeStyle;html=1;" parent="1" source="or0kyJyvzUHvuAnAvBDq-32" target="or0kyJyvzUHvuAnAvBDq-37" edge="1">
                    <mxGeometry relative="1" as="geometry">
                        <mxPoint x="270" y="390" as="sourcePoint"/>
                        <mxPoint x="400.02857142857147" y="450" as="targetPoint"/>
                        <Array as="points">
                            <mxPoint x="430" y="390"/>
                            <mxPoint x="430" y="390"/>
                        </Array>
                    </mxGeometry>
                </mxCell>
                <mxCell id="or0kyJyvzUHvuAnAvBDq-40" style="edgeStyle=orthogonalEdgeStyle;html=1;" parent="1" source="or0kyJyvzUHvuAnAvBDq-33" target="or0kyJyvzUHvuAnAvBDq-46" edge="1">
                    <mxGeometry relative="1" as="geometry">
                        <mxPoint x="270" y="360" as="sourcePoint"/>
                        <Array as="points"/>
                        <mxPoint x="460" y="360" as="targetPoint"/>
                    </mxGeometry>
                </mxCell>
                <mxCell id="or0kyJyvzUHvuAnAvBDq-41" value="callback" style="rounded=1;whiteSpace=wrap;html=1;fillColor=#fff2cc;strokeColor=#d6b656;" parent="1" vertex="1">
                    <mxGeometry x="340" y="350" width="80" height="20" as="geometry"/>
                </mxCell>
                <mxCell id="or0kyJyvzUHvuAnAvBDq-46" value="Output2" style="rounded=0;whiteSpace=wrap;html=1;fillColor=#d5e8d4;strokeColor=#82b366;" parent="1" vertex="1">
                    <mxGeometry x="520" y="350" width="50" height="20" as="geometry"/>
                </mxCell>
                <mxCell id="or0kyJyvzUHvuAnAvBDq-49" value="" style="rounded=0;whiteSpace=wrap;html=1;fillColor=#f5f5f5;fontColor=#333333;strokeColor=#666666;" parent="1" vertex="1">
                    <mxGeometry x="180" y="480" width="140" height="70" as="geometry"/>
                </mxCell>
                <mxCell id="or0kyJyvzUHvuAnAvBDq-50" value="Either" style="rounded=0;whiteSpace=wrap;html=1;fillColor=none;strokeColor=none;" parent="1" vertex="1">
                    <mxGeometry x="190" y="480" width="30" height="20" as="geometry"/>
                </mxCell>
                <mxCell id="or0kyJyvzUHvuAnAvBDq-51" value="Error1" style="rounded=0;whiteSpace=wrap;html=1;fillColor=#f8cecc;strokeColor=#b85450;" parent="1" vertex="1">
                    <mxGeometry x="245" y="520" width="40" height="20" as="geometry"/>
                </mxCell>
                <mxCell id="or0kyJyvzUHvuAnAvBDq-52" value="Output1" style="rounded=0;whiteSpace=wrap;html=1;fillColor=#d5e8d4;strokeColor=#82b366;" parent="1" vertex="1">
                    <mxGeometry x="240" y="490" width="50" height="20" as="geometry"/>
                </mxCell>
                <mxCell id="or0kyJyvzUHvuAnAvBDq-54" value="Either" style="rounded=0;whiteSpace=wrap;html=1;fillColor=none;strokeColor=none;" parent="1" vertex="1">
                    <mxGeometry x="450" y="450" width="30" height="20" as="geometry"/>
                </mxCell>
                <mxCell id="or0kyJyvzUHvuAnAvBDq-55" value="Error1" style="rounded=0;whiteSpace=wrap;html=1;fillColor=#f8cecc;strokeColor=#b85450;" parent="1" vertex="1">
                    <mxGeometry x="455" y="520" width="50" height="20" as="geometry"/>
                </mxCell>
                <mxCell id="or0kyJyvzUHvuAnAvBDq-56" style="edgeStyle=orthogonalEdgeStyle;html=1;" parent="1" source="or0kyJyvzUHvuAnAvBDq-51" target="or0kyJyvzUHvuAnAvBDq-55" edge="1">
                    <mxGeometry relative="1" as="geometry">
                        <mxPoint x="270" y="530" as="sourcePoint"/>
                        <mxPoint x="400.02857142857147" y="590" as="targetPoint"/>
                        <Array as="points">
                            <mxPoint x="430" y="530"/>
                            <mxPoint x="430" y="530"/>
                        </Array>
                    </mxGeometry>
                </mxCell>
                <mxCell id="or0kyJyvzUHvuAnAvBDq-57" style="edgeStyle=orthogonalEdgeStyle;html=1;" parent="1" source="or0kyJyvzUHvuAnAvBDq-52" target="or0kyJyvzUHvuAnAvBDq-59" edge="1">
                    <mxGeometry relative="1" as="geometry">
                        <mxPoint x="270" y="500" as="sourcePoint"/>
                        <Array as="points">
                            <mxPoint x="460" y="500"/>
                            <mxPoint x="460" y="500"/>
                        </Array>
                        <mxPoint x="460" y="500" as="targetPoint"/>
                    </mxGeometry>
                </mxCell>
                <mxCell id="or0kyJyvzUHvuAnAvBDq-58" value="callback" style="rounded=1;whiteSpace=wrap;html=1;fillColor=#fff2cc;strokeColor=#d6b656;" parent="1" vertex="1">
                    <mxGeometry x="340" y="490" width="80" height="20" as="geometry"/>
                </mxCell>
                <mxCell id="or0kyJyvzUHvuAnAvBDq-60" value="Either" style="rounded=0;whiteSpace=wrap;html=1;fillColor=none;strokeColor=none;" parent="1" vertex="1">
                    <mxGeometry x="538" y="470" width="30" height="20" as="geometry"/>
                </mxCell>
                <mxCell id="or0kyJyvzUHvuAnAvBDq-61" value="Output2" style="rounded=0;whiteSpace=wrap;html=1;fillColor=#d5e8d4;strokeColor=#82b366;" parent="1" vertex="1">
                    <mxGeometry x="1237" y="756" width="50" height="20" as="geometry"/>
                </mxCell>
                <mxCell id="or0kyJyvzUHvuAnAvBDq-62" value="Error2" style="rounded=0;whiteSpace=wrap;html=1;fillColor=#f8cecc;strokeColor=#b85450;" parent="1" vertex="1">
                    <mxGeometry x="545" y="530" width="50" height="20" as="geometry"/>
                </mxCell>
                <mxCell id="or0kyJyvzUHvuAnAvBDq-66" value="Output2" style="rounded=0;whiteSpace=wrap;html=1;fillColor=#d5e8d4;strokeColor=#82b366;" parent="1" vertex="1">
                    <mxGeometry x="545" y="493" width="50" height="20" as="geometry"/>
                </mxCell>
                <mxCell id="or0kyJyvzUHvuAnAvBDq-86" value="" style="rounded=0;whiteSpace=wrap;html=1;fillColor=none;dashed=1;" parent="1" vertex="1">
                    <mxGeometry x="469" y="211" width="41" height="49" as="geometry"/>
                </mxCell>
                <mxCell id="or0kyJyvzUHvuAnAvBDq-21" value="" style="rounded=0;whiteSpace=wrap;html=1;fillColor=none;dashed=1;" parent="1" vertex="1">
                    <mxGeometry x="516" y="170" width="64" height="90" as="geometry"/>
                </mxCell>
                <mxCell id="or0kyJyvzUHvuAnAvBDq-99" style="edgeStyle=orthogonalEdgeStyle;html=1;fontSize=24;fontColor=#FF3333;" parent="1" source="or0kyJyvzUHvuAnAvBDq-91" target="or0kyJyvzUHvuAnAvBDq-97" edge="1">
                    <mxGeometry relative="1" as="geometry"/>
                </mxCell>
                <mxCell id="or0kyJyvzUHvuAnAvBDq-91" value="" style="rounded=0;whiteSpace=wrap;html=1;fillColor=#f5f5f5;fontColor=#333333;strokeColor=#666666;" parent="1" vertex="1">
                    <mxGeometry x="180" y="660" width="151" height="130" as="geometry"/>
                </mxCell>
                <mxCell id="or0kyJyvzUHvuAnAvBDq-92" value="Either" style="rounded=0;whiteSpace=wrap;html=1;fillColor=none;strokeColor=none;" parent="1" vertex="1">
                    <mxGeometry x="190" y="660" width="30" height="20" as="geometry"/>
                </mxCell>
                <mxCell id="or0kyJyvzUHvuAnAvBDq-93" value="Error1 or Error2" style="rounded=0;whiteSpace=wrap;html=1;fillColor=#f8cecc;strokeColor=#b85450;" parent="1" vertex="1">
                    <mxGeometry x="208" y="740" width="102" height="20" as="geometry"/>
                </mxCell>
                <mxCell id="or0kyJyvzUHvuAnAvBDq-94" value="Output2" style="rounded=0;whiteSpace=wrap;html=1;fillColor=#d5e8d4;strokeColor=#82b366;" parent="1" vertex="1">
                    <mxGeometry x="227" y="692" width="50" height="20" as="geometry"/>
                </mxCell>
                <mxCell id="or0kyJyvzUHvuAnAvBDq-97" value="Output2 or Error1 or Error2" style="rounded=0;whiteSpace=wrap;html=1;fillColor=#f5f5f5;strokeColor=#666666;fontColor=#333333;" parent="1" vertex="1">
                    <mxGeometry x="408" y="691.5" width="176" height="67" as="geometry"/>
                </mxCell>
                <mxCell id="or0kyJyvzUHvuAnAvBDq-18" style="edgeStyle=orthogonalEdgeStyle;html=1;" parent="1" source="or0kyJyvzUHvuAnAvBDq-3" target="or0kyJyvzUHvuAnAvBDq-86" edge="1">
                    <mxGeometry relative="1" as="geometry">
                        <mxPoint x="270" y="230" as="sourcePoint"/>
                        <mxPoint x="460" y="230" as="targetPoint"/>
                        <Array as="points">
                            <mxPoint x="411" y="230"/>
                            <mxPoint x="411" y="230"/>
                        </Array>
                    </mxGeometry>
                </mxCell>
            </root>
        </mxGraphModel>
    </diagram>
    <diagram id="kl8Awi56yDmTBAIEzLKY" name="xhr">
        <mxGraphModel dx="2286" dy="820" grid="1" gridSize="10" guides="1" tooltips="1" connect="1" arrows="1" fold="1" page="1" pageScale="1" pageWidth="850" pageHeight="1100" math="0" shadow="0">
            <root>
                <mxCell id="0"/>
                <mxCell id="1" parent="0"/>
                <mxCell id="QuSsolzXCfjlpCdR-gjE-95" value="&lt;b&gt;Next.js Client Component&amp;nbsp; @ Browser&lt;/b&gt;" style="rounded=1;whiteSpace=wrap;html=1;sketch=1;fillStyle=solid;fillColor=none;verticalAlign=top;" vertex="1" parent="1">
                    <mxGeometry x="-70" y="120" width="1050" height="285.63" as="geometry"/>
                </mxCell>
                <mxCell id="QuSsolzXCfjlpCdR-gjE-57" value="&lt;b&gt;Next.js API @ Server&lt;/b&gt;" style="rounded=1;whiteSpace=wrap;html=1;sketch=1;fillStyle=solid;fillColor=none;verticalAlign=top;" vertex="1" parent="1">
                    <mxGeometry x="400" y="430" width="400" height="180" as="geometry"/>
                </mxCell>
                <mxCell id="QuSsolzXCfjlpCdR-gjE-105" value="query&lt;br&gt;error" style="shape=cube;whiteSpace=wrap;html=1;boundedLbl=1;backgroundOutline=1;darkOpacity=0.05;darkOpacity2=0.1;sketch=1;fillStyle=solid;fillColor=#f8cecc;strokeColor=#b85450;size=10;" vertex="1" parent="1">
                    <mxGeometry x="719.38" y="579.35" width="60" height="50" as="geometry"/>
                </mxCell>
                <mxCell id="QuSsolzXCfjlpCdR-gjE-85" style="edgeStyle=orthogonalEdgeStyle;html=1;" edge="1" parent="1" source="QuSsolzXCfjlpCdR-gjE-81" target="QuSsolzXCfjlpCdR-gjE-83">
                    <mxGeometry relative="1" as="geometry">
                        <Array as="points">
                            <mxPoint x="645" y="580"/>
                            <mxPoint x="603" y="580"/>
                        </Array>
                    </mxGeometry>
                </mxCell>
                <mxCell id="QuSsolzXCfjlpCdR-gjE-81" value="request&lt;br&gt;error" style="shape=cube;whiteSpace=wrap;html=1;boundedLbl=1;backgroundOutline=1;darkOpacity=0.05;darkOpacity2=0.1;sketch=1;fillStyle=solid;fillColor=#f8cecc;strokeColor=#b85450;size=10;" vertex="1" parent="1">
                    <mxGeometry x="615" y="516.87" width="60" height="50" as="geometry"/>
                </mxCell>
                <mxCell id="QuSsolzXCfjlpCdR-gjE-32" style="edgeStyle=orthogonalEdgeStyle;html=1;" edge="1" parent="1" source="QuSsolzXCfjlpCdR-gjE-7" target="QuSsolzXCfjlpCdR-gjE-6">
                    <mxGeometry relative="1" as="geometry"/>
                </mxCell>
                <mxCell id="QuSsolzXCfjlpCdR-gjE-7" value="event" style="shape=cube;whiteSpace=wrap;html=1;boundedLbl=1;backgroundOutline=1;darkOpacity=0.05;darkOpacity2=0.1;sketch=1;fillStyle=solid;fillColor=#fff2cc;strokeColor=#d6b656;size=10;" vertex="1" parent="1">
                    <mxGeometry x="-60" y="340" width="60" height="50" as="geometry"/>
                </mxCell>
                <mxCell id="QuSsolzXCfjlpCdR-gjE-2" value="function&lt;br&gt;A" style="shape=cylinder3;whiteSpace=wrap;html=1;boundedLbl=1;backgroundOutline=1;size=15;sketch=1;curveFitting=1;jiggle=2;fillColor=#dae8fc;strokeColor=#6c8ebf;fillStyle=solid;" vertex="1" parent="1">
                    <mxGeometry x="350" y="150" width="70" height="90" as="geometry"/>
                </mxCell>
                <mxCell id="QuSsolzXCfjlpCdR-gjE-4" value="" style="endArrow=none;html=1;" edge="1" parent="1">
                    <mxGeometry width="50" height="50" relative="1" as="geometry">
                        <mxPoint x="440" y="190" as="sourcePoint"/>
                        <mxPoint x="900" y="320" as="targetPoint"/>
                    </mxGeometry>
                </mxCell>
                <mxCell id="QuSsolzXCfjlpCdR-gjE-5" value="" style="endArrow=none;html=1;" edge="1" parent="1">
                    <mxGeometry width="50" height="50" relative="1" as="geometry">
                        <mxPoint x="330" y="190" as="sourcePoint"/>
                        <mxPoint x="-10" y="320" as="targetPoint"/>
                    </mxGeometry>
                </mxCell>
                <mxCell id="QuSsolzXCfjlpCdR-gjE-33" style="edgeStyle=orthogonalEdgeStyle;html=1;" edge="1" parent="1" source="QuSsolzXCfjlpCdR-gjE-6" target="QuSsolzXCfjlpCdR-gjE-8">
                    <mxGeometry relative="1" as="geometry"/>
                </mxCell>
                <mxCell id="QuSsolzXCfjlpCdR-gjE-6" value="" style="shape=cylinder3;whiteSpace=wrap;html=1;boundedLbl=1;backgroundOutline=1;size=8.457205636160609;sketch=1;curveFitting=1;jiggle=2;fillColor=#dae8fc;strokeColor=#6c8ebf;fillStyle=solid;rotation=90;" vertex="1" parent="1">
                    <mxGeometry x="40.63" y="324.38" width="35" height="81.25" as="geometry"/>
                </mxCell>
                <mxCell id="QuSsolzXCfjlpCdR-gjE-19" style="edgeStyle=none;html=1;" edge="1" parent="1" source="QuSsolzXCfjlpCdR-gjE-8" target="QuSsolzXCfjlpCdR-gjE-29">
                    <mxGeometry relative="1" as="geometry">
                        <mxPoint x="220" y="365" as="targetPoint"/>
                    </mxGeometry>
                </mxCell>
                <mxCell id="QuSsolzXCfjlpCdR-gjE-90" style="edgeStyle=orthogonalEdgeStyle;html=1;endArrow=classic;endFill=1;dashed=1;exitX=1;exitY=0;exitDx=0;exitDy=24.541102818080304;exitPerimeter=0;" edge="1" parent="1" source="QuSsolzXCfjlpCdR-gjE-29" target="QuSsolzXCfjlpCdR-gjE-58">
                    <mxGeometry relative="1" as="geometry">
                        <Array as="points">
                            <mxPoint x="256" y="400"/>
                            <mxPoint x="256" y="400"/>
                            <mxPoint x="256" y="500"/>
                        </Array>
                    </mxGeometry>
                </mxCell>
                <mxCell id="QuSsolzXCfjlpCdR-gjE-8" value="request" style="shape=cube;whiteSpace=wrap;html=1;boundedLbl=1;backgroundOutline=1;darkOpacity=0.05;darkOpacity2=0.1;sketch=1;fillStyle=solid;fillColor=#fff2cc;strokeColor=#d6b656;size=10;" vertex="1" parent="1">
                    <mxGeometry x="120" y="340" width="60" height="50" as="geometry"/>
                </mxCell>
                <mxCell id="QuSsolzXCfjlpCdR-gjE-20" style="edgeStyle=none;html=1;" edge="1" parent="1" target="QuSsolzXCfjlpCdR-gjE-11">
                    <mxGeometry relative="1" as="geometry">
                        <mxPoint x="500" y="260" as="targetPoint"/>
                        <mxPoint x="280" y="365" as="sourcePoint"/>
                    </mxGeometry>
                </mxCell>
                <mxCell id="QuSsolzXCfjlpCdR-gjE-10" value="unvalidated&lt;br&gt;response" style="shape=cube;whiteSpace=wrap;html=1;boundedLbl=1;backgroundOutline=1;darkOpacity=0.05;darkOpacity2=0.1;sketch=1;fillStyle=solid;fillColor=#fff2cc;strokeColor=#d6b656;size=10;" vertex="1" parent="1">
                    <mxGeometry x="350" y="340" width="80" height="50" as="geometry"/>
                </mxCell>
                <mxCell id="QuSsolzXCfjlpCdR-gjE-91" style="edgeStyle=orthogonalEdgeStyle;html=1;dashed=1;endArrow=classic;endFill=1;entryX=1.024;entryY=0.631;entryDx=0;entryDy=0;entryPerimeter=0;" edge="1" parent="1" source="QuSsolzXCfjlpCdR-gjE-82" target="QuSsolzXCfjlpCdR-gjE-29">
                    <mxGeometry relative="1" as="geometry">
                        <mxPoint x="270" y="450" as="targetPoint"/>
                        <Array as="points">
                            <mxPoint x="229" y="579"/>
                            <mxPoint x="229" y="383"/>
                        </Array>
                    </mxGeometry>
                </mxCell>
                <mxCell id="QuSsolzXCfjlpCdR-gjE-11" value="request&lt;br&gt;error" style="shape=cube;whiteSpace=wrap;html=1;boundedLbl=1;backgroundOutline=1;darkOpacity=0.05;darkOpacity2=0.1;sketch=1;fillStyle=solid;fillColor=#f8cecc;strokeColor=#b85450;size=10;" vertex="1" parent="1">
                    <mxGeometry x="300" y="340" width="60" height="50" as="geometry"/>
                </mxCell>
                <mxCell id="QuSsolzXCfjlpCdR-gjE-28" value="function" style="rounded=1;whiteSpace=wrap;html=1;sketch=1;fillStyle=solid;fillColor=none;strokeColor=none;" vertex="1" parent="1">
                    <mxGeometry x="40" y="352.5" width="30" height="25" as="geometry"/>
                </mxCell>
                <mxCell id="QuSsolzXCfjlpCdR-gjE-31" value="" style="group" vertex="1" connectable="0" parent="1">
                    <mxGeometry x="198.755" y="347.505" width="81.25" height="35" as="geometry"/>
                </mxCell>
                <mxCell id="QuSsolzXCfjlpCdR-gjE-29" value="" style="shape=cylinder3;whiteSpace=wrap;html=1;boundedLbl=1;backgroundOutline=1;size=8.457205636160609;sketch=1;curveFitting=1;jiggle=2;fillColor=#e1d5e7;strokeColor=#9673a6;fillStyle=solid;rotation=90;" vertex="1" parent="QuSsolzXCfjlpCdR-gjE-31">
                    <mxGeometry x="23.125000000000007" y="-23.125" width="35" height="81.25" as="geometry"/>
                </mxCell>
                <mxCell id="QuSsolzXCfjlpCdR-gjE-30" value="async&lt;br&gt;function" style="rounded=1;whiteSpace=wrap;html=1;sketch=1;fillStyle=solid;fillColor=none;strokeColor=none;" vertex="1" parent="QuSsolzXCfjlpCdR-gjE-31">
                    <mxGeometry x="22.495000000000005" y="4.9950000000000045" width="30" height="25" as="geometry"/>
                </mxCell>
                <mxCell id="QuSsolzXCfjlpCdR-gjE-34" style="edgeStyle=none;html=1;" edge="1" parent="1" target="QuSsolzXCfjlpCdR-gjE-37">
                    <mxGeometry relative="1" as="geometry">
                        <mxPoint x="430" y="367.5" as="sourcePoint"/>
                        <mxPoint x="470" y="367.5" as="targetPoint"/>
                    </mxGeometry>
                </mxCell>
                <mxCell id="QuSsolzXCfjlpCdR-gjE-35" style="edgeStyle=none;html=1;" edge="1" parent="1">
                    <mxGeometry relative="1" as="geometry">
                        <mxPoint x="550" y="367.5" as="targetPoint"/>
                        <mxPoint x="530" y="367.5" as="sourcePoint"/>
                    </mxGeometry>
                </mxCell>
                <mxCell id="QuSsolzXCfjlpCdR-gjE-36" value="" style="group" vertex="1" connectable="0" parent="1">
                    <mxGeometry x="448.755" y="350.005" width="81.25" height="35" as="geometry"/>
                </mxCell>
                <mxCell id="QuSsolzXCfjlpCdR-gjE-37" value="" style="shape=cylinder3;whiteSpace=wrap;html=1;boundedLbl=1;backgroundOutline=1;size=8.457205636160609;sketch=1;curveFitting=1;jiggle=2;fillColor=#dae8fc;strokeColor=#6c8ebf;fillStyle=solid;rotation=90;" vertex="1" parent="QuSsolzXCfjlpCdR-gjE-36">
                    <mxGeometry x="23.125000000000007" y="-23.125" width="35" height="81.25" as="geometry"/>
                </mxCell>
                <mxCell id="QuSsolzXCfjlpCdR-gjE-38" value="function" style="rounded=1;whiteSpace=wrap;html=1;sketch=1;fillStyle=solid;fillColor=none;strokeColor=none;" vertex="1" parent="QuSsolzXCfjlpCdR-gjE-36">
                    <mxGeometry x="22.495000000000005" y="4.9950000000000045" width="30" height="25" as="geometry"/>
                </mxCell>
                <mxCell id="QuSsolzXCfjlpCdR-gjE-39" value="validated&lt;br&gt;response" style="shape=cube;whiteSpace=wrap;html=1;boundedLbl=1;backgroundOutline=1;darkOpacity=0.05;darkOpacity2=0.1;sketch=1;fillStyle=solid;fillColor=#fff2cc;strokeColor=#d6b656;size=10;" vertex="1" parent="1">
                    <mxGeometry x="700" y="342.51" width="70" height="50" as="geometry"/>
                </mxCell>
                <mxCell id="QuSsolzXCfjlpCdR-gjE-40" value="request&lt;br&gt;error" style="shape=cube;whiteSpace=wrap;html=1;boundedLbl=1;backgroundOutline=1;darkOpacity=0.05;darkOpacity2=0.1;sketch=1;fillStyle=solid;fillColor=#f8cecc;strokeColor=#b85450;size=10;" vertex="1" parent="1">
                    <mxGeometry x="650" y="342.51" width="60" height="50" as="geometry"/>
                </mxCell>
                <mxCell id="QuSsolzXCfjlpCdR-gjE-41" value="status&lt;br&gt;error" style="shape=cube;whiteSpace=wrap;html=1;boundedLbl=1;backgroundOutline=1;darkOpacity=0.05;darkOpacity2=0.1;sketch=1;fillStyle=solid;fillColor=#f8cecc;strokeColor=#b85450;size=10;" vertex="1" parent="1">
                    <mxGeometry x="600" y="342.51" width="60" height="50" as="geometry"/>
                </mxCell>
                <mxCell id="QuSsolzXCfjlpCdR-gjE-42" value="validate&lt;br&gt;error" style="shape=cube;whiteSpace=wrap;html=1;boundedLbl=1;backgroundOutline=1;darkOpacity=0.05;darkOpacity2=0.1;sketch=1;fillStyle=solid;fillColor=#f8cecc;strokeColor=#b85450;size=10;" vertex="1" parent="1">
                    <mxGeometry x="550" y="342.51" width="60" height="50" as="geometry"/>
                </mxCell>
                <mxCell id="QuSsolzXCfjlpCdR-gjE-48" style="edgeStyle=none;html=1;" edge="1" parent="1" target="QuSsolzXCfjlpCdR-gjE-51">
                    <mxGeometry relative="1" as="geometry">
                        <mxPoint x="770" y="367.5" as="sourcePoint"/>
                        <mxPoint x="810" y="367.5" as="targetPoint"/>
                    </mxGeometry>
                </mxCell>
                <mxCell id="QuSsolzXCfjlpCdR-gjE-49" style="edgeStyle=none;html=1;" edge="1" parent="1">
                    <mxGeometry relative="1" as="geometry">
                        <mxPoint x="890" y="367.5" as="targetPoint"/>
                        <mxPoint x="870" y="367.5" as="sourcePoint"/>
                    </mxGeometry>
                </mxCell>
                <mxCell id="QuSsolzXCfjlpCdR-gjE-50" value="" style="group" vertex="1" connectable="0" parent="1">
                    <mxGeometry x="788.755" y="350.005" width="81.25" height="35" as="geometry"/>
                </mxCell>
                <mxCell id="QuSsolzXCfjlpCdR-gjE-51" value="" style="shape=cylinder3;whiteSpace=wrap;html=1;boundedLbl=1;backgroundOutline=1;size=8.457205636160609;sketch=1;curveFitting=1;jiggle=2;fillColor=#dae8fc;strokeColor=#6c8ebf;fillStyle=solid;rotation=90;" vertex="1" parent="QuSsolzXCfjlpCdR-gjE-50">
                    <mxGeometry x="23.125000000000007" y="-23.125" width="35" height="81.25" as="geometry"/>
                </mxCell>
                <mxCell id="QuSsolzXCfjlpCdR-gjE-52" value="function" style="rounded=1;whiteSpace=wrap;html=1;sketch=1;fillStyle=solid;fillColor=none;strokeColor=none;" vertex="1" parent="QuSsolzXCfjlpCdR-gjE-50">
                    <mxGeometry x="22.495000000000005" y="4.9950000000000045" width="30" height="25" as="geometry"/>
                </mxCell>
                <mxCell id="QuSsolzXCfjlpCdR-gjE-53" value="domain&lt;br&gt;type" style="shape=cube;whiteSpace=wrap;html=1;boundedLbl=1;backgroundOutline=1;darkOpacity=0.05;darkOpacity2=0.1;sketch=1;fillStyle=solid;fillColor=#d5e8d4;strokeColor=#82b366;size=10;" vertex="1" parent="1">
                    <mxGeometry x="890" y="342.51" width="70" height="50" as="geometry"/>
                </mxCell>
                <mxCell id="QuSsolzXCfjlpCdR-gjE-62" style="edgeStyle=orthogonalEdgeStyle;html=1;" edge="1" parent="1" source="QuSsolzXCfjlpCdR-gjE-58" target="QuSsolzXCfjlpCdR-gjE-65">
                    <mxGeometry relative="1" as="geometry">
                        <mxPoint x="518.7550000000001" y="507.5460281236824" as="targetPoint"/>
                    </mxGeometry>
                </mxCell>
                <mxCell id="QuSsolzXCfjlpCdR-gjE-58" value="request" style="shape=cube;whiteSpace=wrap;html=1;boundedLbl=1;backgroundOutline=1;darkOpacity=0.05;darkOpacity2=0.1;sketch=1;fillStyle=solid;fillColor=#fff2cc;strokeColor=#d6b656;size=10;" vertex="1" parent="1">
                    <mxGeometry x="418.75" y="480.01" width="60" height="50" as="geometry"/>
                </mxCell>
                <mxCell id="QuSsolzXCfjlpCdR-gjE-69" style="edgeStyle=orthogonalEdgeStyle;html=1;" edge="1" parent="1" source="QuSsolzXCfjlpCdR-gjE-63" target="QuSsolzXCfjlpCdR-gjE-71">
                    <mxGeometry relative="1" as="geometry">
                        <mxPoint x="750" y="510" as="targetPoint"/>
                        <Array as="points">
                            <mxPoint x="692" y="489"/>
                        </Array>
                    </mxGeometry>
                </mxCell>
                <mxCell id="QuSsolzXCfjlpCdR-gjE-63" value="DB&lt;br&gt;query" style="shape=cube;whiteSpace=wrap;html=1;boundedLbl=1;backgroundOutline=1;darkOpacity=0.05;darkOpacity2=0.1;sketch=1;fillStyle=solid;fillColor=#fff2cc;strokeColor=#d6b656;size=10;" vertex="1" parent="1">
                    <mxGeometry x="615" y="464.38" width="60" height="50" as="geometry"/>
                </mxCell>
                <mxCell id="QuSsolzXCfjlpCdR-gjE-67" style="edgeStyle=orthogonalEdgeStyle;html=1;" edge="1" parent="1" source="QuSsolzXCfjlpCdR-gjE-65" target="QuSsolzXCfjlpCdR-gjE-63">
                    <mxGeometry relative="1" as="geometry">
                        <Array as="points">
                            <mxPoint x="600" y="510"/>
                        </Array>
                    </mxGeometry>
                </mxCell>
                <mxCell id="QuSsolzXCfjlpCdR-gjE-86" style="edgeStyle=orthogonalEdgeStyle;html=1;" edge="1" parent="1" source="QuSsolzXCfjlpCdR-gjE-65" target="QuSsolzXCfjlpCdR-gjE-81">
                    <mxGeometry relative="1" as="geometry">
                        <Array as="points">
                            <mxPoint x="601" y="510"/>
                            <mxPoint x="601" y="542"/>
                        </Array>
                    </mxGeometry>
                </mxCell>
                <mxCell id="QuSsolzXCfjlpCdR-gjE-65" value="" style="shape=cylinder3;whiteSpace=wrap;html=1;boundedLbl=1;backgroundOutline=1;size=8.457205636160609;sketch=1;curveFitting=1;jiggle=2;fillColor=#dae8fc;strokeColor=#6c8ebf;fillStyle=solid;rotation=90;" vertex="1" parent="1">
                    <mxGeometry x="529.38" y="464.38" width="35" height="81.25" as="geometry"/>
                </mxCell>
                <mxCell id="QuSsolzXCfjlpCdR-gjE-66" value="function" style="rounded=1;whiteSpace=wrap;html=1;sketch=1;fillStyle=solid;fillColor=none;strokeColor=none;" vertex="1" parent="1">
                    <mxGeometry x="528.75" y="492.5" width="30" height="25" as="geometry"/>
                </mxCell>
                <mxCell id="QuSsolzXCfjlpCdR-gjE-70" value="" style="group" vertex="1" connectable="0" parent="1">
                    <mxGeometry x="708.755" y="472.475" width="81.25" height="35" as="geometry"/>
                </mxCell>
                <mxCell id="QuSsolzXCfjlpCdR-gjE-71" value="" style="shape=cylinder3;whiteSpace=wrap;html=1;boundedLbl=1;backgroundOutline=1;size=8.457205636160609;sketch=1;curveFitting=1;jiggle=2;fillColor=#e1d5e7;strokeColor=#9673a6;fillStyle=solid;rotation=90;" vertex="1" parent="QuSsolzXCfjlpCdR-gjE-70">
                    <mxGeometry x="23.125000000000007" y="-23.125" width="35" height="81.25" as="geometry"/>
                </mxCell>
                <mxCell id="QuSsolzXCfjlpCdR-gjE-72" value="async&lt;br&gt;function" style="rounded=1;whiteSpace=wrap;html=1;sketch=1;fillStyle=solid;fillColor=none;strokeColor=none;" vertex="1" parent="QuSsolzXCfjlpCdR-gjE-70">
                    <mxGeometry x="30" y="5" width="22.5" height="25" as="geometry"/>
                </mxCell>
                <mxCell id="QuSsolzXCfjlpCdR-gjE-96" style="edgeStyle=orthogonalEdgeStyle;html=1;endArrow=classic;endFill=1;" edge="1" parent="1" source="QuSsolzXCfjlpCdR-gjE-74" target="QuSsolzXCfjlpCdR-gjE-88">
                    <mxGeometry relative="1" as="geometry">
                        <Array as="points">
                            <mxPoint x="830" y="579"/>
                            <mxPoint x="830" y="579"/>
                        </Array>
                    </mxGeometry>
                </mxCell>
                <mxCell id="QuSsolzXCfjlpCdR-gjE-74" value="DB" style="shape=datastore;whiteSpace=wrap;html=1;rounded=1;sketch=1;fillStyle=solid;fillColor=none;" vertex="1" parent="1">
                    <mxGeometry x="850" y="545.63" width="60" height="60" as="geometry"/>
                </mxCell>
                <mxCell id="QuSsolzXCfjlpCdR-gjE-75" style="edgeStyle=orthogonalEdgeStyle;html=1;" edge="1" parent="1" source="QuSsolzXCfjlpCdR-gjE-71" target="QuSsolzXCfjlpCdR-gjE-74">
                    <mxGeometry relative="1" as="geometry">
                        <mxPoint x="770" y="580" as="targetPoint"/>
                    </mxGeometry>
                </mxCell>
                <mxCell id="QuSsolzXCfjlpCdR-gjE-82" value="response" style="shape=cube;whiteSpace=wrap;html=1;boundedLbl=1;backgroundOutline=1;darkOpacity=0.05;darkOpacity2=0.1;sketch=1;fillStyle=solid;fillColor=#f8cecc;strokeColor=#b85450;size=10;" vertex="1" parent="1">
                    <mxGeometry x="418.75" y="554.37" width="60" height="50" as="geometry"/>
                </mxCell>
                <mxCell id="QuSsolzXCfjlpCdR-gjE-87" style="edgeStyle=orthogonalEdgeStyle;html=1;" edge="1" parent="1" source="QuSsolzXCfjlpCdR-gjE-83" target="QuSsolzXCfjlpCdR-gjE-82">
                    <mxGeometry relative="1" as="geometry"/>
                </mxCell>
                <mxCell id="QuSsolzXCfjlpCdR-gjE-83" value="" style="shape=cylinder3;whiteSpace=wrap;html=1;boundedLbl=1;backgroundOutline=1;size=8.457205636160609;sketch=1;curveFitting=1;jiggle=2;fillColor=#dae8fc;strokeColor=#6c8ebf;fillStyle=solid;rotation=90;" vertex="1" parent="1">
                    <mxGeometry x="532.8199999999999" y="538.75" width="35" height="81.25" as="geometry"/>
                </mxCell>
                <mxCell id="QuSsolzXCfjlpCdR-gjE-84" value="function" style="rounded=1;whiteSpace=wrap;html=1;sketch=1;fillStyle=solid;fillColor=none;strokeColor=none;" vertex="1" parent="1">
                    <mxGeometry x="532.19" y="566.87" width="30" height="25" as="geometry"/>
                </mxCell>
                <mxCell id="QuSsolzXCfjlpCdR-gjE-89" style="edgeStyle=orthogonalEdgeStyle;html=1;" edge="1" parent="1" source="QuSsolzXCfjlpCdR-gjE-88" target="QuSsolzXCfjlpCdR-gjE-83">
                    <mxGeometry relative="1" as="geometry">
                        <Array as="points">
                            <mxPoint x="655" y="580"/>
                        </Array>
                    </mxGeometry>
                </mxCell>
                <mxCell id="QuSsolzXCfjlpCdR-gjE-88" value="query&lt;br&gt;result" style="shape=cube;whiteSpace=wrap;html=1;boundedLbl=1;backgroundOutline=1;darkOpacity=0.05;darkOpacity2=0.1;sketch=1;fillStyle=solid;fillColor=#fff2cc;strokeColor=#d6b656;size=10;" vertex="1" parent="1">
                    <mxGeometry x="719.38" y="538.75" width="60" height="50" as="geometry"/>
                </mxCell>
                <mxCell id="QuSsolzXCfjlpCdR-gjE-93" value="" style="rounded=0;whiteSpace=wrap;html=1;sketch=1;fillStyle=solid;fillColor=none;dashed=1;" vertex="1" parent="1">
                    <mxGeometry x="290" y="332.51" width="150" height="67.49" as="geometry"/>
                </mxCell>
                <mxCell id="QuSsolzXCfjlpCdR-gjE-97" value="&lt;b&gt;&lt;font style=&quot;font-size: 16px;&quot;&gt;1&lt;/font&gt;&lt;/b&gt;" style="ellipse;whiteSpace=wrap;html=1;rounded=1;sketch=1;fillStyle=solid;fillColor=#0050ef;fontColor=#ffffff;strokeColor=#001DBC;" vertex="1" parent="1">
                    <mxGeometry x="69.99999999999999" y="315.02" width="30" height="24.98" as="geometry"/>
                </mxCell>
                <mxCell id="QuSsolzXCfjlpCdR-gjE-99" value="&lt;b&gt;&lt;font style=&quot;font-size: 16px;&quot;&gt;2&lt;/font&gt;&lt;/b&gt;" style="ellipse;whiteSpace=wrap;html=1;rounded=1;sketch=1;fillStyle=solid;fillColor=#0050ef;fontColor=#ffffff;strokeColor=#001DBC;" vertex="1" parent="1">
                    <mxGeometry x="224.38" y="315.02" width="30" height="24.98" as="geometry"/>
                </mxCell>
                <mxCell id="QuSsolzXCfjlpCdR-gjE-100" value="&lt;b&gt;&lt;font style=&quot;font-size: 16px;&quot;&gt;3&lt;/font&gt;&lt;/b&gt;" style="ellipse;whiteSpace=wrap;html=1;rounded=1;sketch=1;fillStyle=solid;fillColor=#0050ef;fontColor=#ffffff;strokeColor=#001DBC;" vertex="1" parent="1">
                    <mxGeometry x="534.38" y="455.03" width="30" height="24.98" as="geometry"/>
                </mxCell>
                <mxCell id="QuSsolzXCfjlpCdR-gjE-101" value="&lt;b&gt;&lt;font style=&quot;font-size: 16px;&quot;&gt;4&lt;/font&gt;&lt;/b&gt;" style="ellipse;whiteSpace=wrap;html=1;rounded=1;sketch=1;fillStyle=solid;fillColor=#0050ef;fontColor=#ffffff;strokeColor=#001DBC;" vertex="1" parent="1">
                    <mxGeometry x="734.38" y="440" width="30" height="24.98" as="geometry"/>
                </mxCell>
                <mxCell id="QuSsolzXCfjlpCdR-gjE-102" value="&lt;b&gt;&lt;font style=&quot;font-size: 16px;&quot;&gt;5&lt;/font&gt;&lt;/b&gt;" style="ellipse;whiteSpace=wrap;html=1;rounded=1;sketch=1;fillStyle=solid;fillColor=#0050ef;fontColor=#ffffff;strokeColor=#001DBC;" vertex="1" parent="1">
                    <mxGeometry x="540" y="604.37" width="30" height="24.98" as="geometry"/>
                </mxCell>
                <mxCell id="QuSsolzXCfjlpCdR-gjE-103" value="&lt;b&gt;&lt;font style=&quot;font-size: 16px;&quot;&gt;6&lt;/font&gt;&lt;/b&gt;" style="ellipse;whiteSpace=wrap;html=1;rounded=1;sketch=1;fillStyle=solid;fillColor=#0050ef;fontColor=#ffffff;strokeColor=#001DBC;" vertex="1" parent="1">
                    <mxGeometry x="474.38" y="317.53000000000003" width="30" height="24.98" as="geometry"/>
                </mxCell>
                <mxCell id="QuSsolzXCfjlpCdR-gjE-104" value="&lt;b&gt;&lt;font style=&quot;font-size: 16px;&quot;&gt;7&lt;/font&gt;&lt;/b&gt;" style="ellipse;whiteSpace=wrap;html=1;rounded=1;sketch=1;fillStyle=solid;fillColor=#0050ef;fontColor=#ffffff;strokeColor=#001DBC;" vertex="1" parent="1">
                    <mxGeometry x="814.38" y="322.53000000000003" width="30" height="24.98" as="geometry"/>
                </mxCell>
            </root>
        </mxGraphModel>
    </diagram>
    <diagram id="hmAp8Fwz-CHTUnQMaXY6" name="Page-4">
        <mxGraphModel dx="898" dy="220" grid="0" gridSize="10" guides="1" tooltips="1" connect="1" arrows="1" fold="1" page="1" pageScale="1" pageWidth="850" pageHeight="1100" math="0" shadow="0">
            <root>
                <mxCell id="0"/>
                <mxCell id="1" parent="0"/>
                <mxCell id="6ApuMoLPLKZQZSNd-cOS-14" value="" style="rounded=0;whiteSpace=wrap;html=1;fillColor=#dae8fc;strokeColor=#6c8ebf;opacity=50;" vertex="1" parent="1">
                    <mxGeometry x="60" y="160" width="510" height="380" as="geometry"/>
                </mxCell>
                <mxCell id="6ApuMoLPLKZQZSNd-cOS-2" value="" style="rounded=0;whiteSpace=wrap;html=1;fillColor=#d5e8d4;strokeColor=#82b366;opacity=50;" vertex="1" parent="1">
                    <mxGeometry x="210" y="180" width="310" height="170" as="geometry"/>
                </mxCell>
                <mxCell id="6ApuMoLPLKZQZSNd-cOS-1" value="MSW Worker" style="rounded=1;whiteSpace=wrap;html=1;fillColor=#FFFFFF;strokeColor=#d79b00;" vertex="1" parent="1">
                    <mxGeometry x="230" y="270" width="120" height="60" as="geometry"/>
                </mxCell>
                <mxCell id="6ApuMoLPLKZQZSNd-cOS-4" style="edgeStyle=orthogonalEdgeStyle;html=1;" edge="1" parent="1" source="6ApuMoLPLKZQZSNd-cOS-3" target="6ApuMoLPLKZQZSNd-cOS-1">
                    <mxGeometry relative="1" as="geometry"/>
                </mxCell>
                <mxCell id="6ApuMoLPLKZQZSNd-cOS-3" value="Client Component" style="rounded=1;whiteSpace=wrap;html=1;" vertex="1" parent="1">
                    <mxGeometry x="370" y="200" width="120" height="60" as="geometry"/>
                </mxCell>
                <mxCell id="6ApuMoLPLKZQZSNd-cOS-5" value="Frontend" style="rounded=1;whiteSpace=wrap;html=1;fillColor=none;strokeColor=none;" vertex="1" parent="1">
                    <mxGeometry x="210" y="180" width="80" height="30" as="geometry"/>
                </mxCell>
                <mxCell id="6ApuMoLPLKZQZSNd-cOS-6" value="" style="rounded=0;whiteSpace=wrap;html=1;fillColor=#d5e8d4;strokeColor=#82b366;opacity=50;" vertex="1" parent="1">
                    <mxGeometry x="210" y="390" width="310" height="240" as="geometry"/>
                </mxCell>
                <mxCell id="6ApuMoLPLKZQZSNd-cOS-17" style="edgeStyle=orthogonalEdgeStyle;html=1;dashed=1;dashPattern=1 2;" edge="1" parent="1" source="6ApuMoLPLKZQZSNd-cOS-7" target="6ApuMoLPLKZQZSNd-cOS-16">
                    <mxGeometry relative="1" as="geometry"/>
                </mxCell>
                <mxCell id="6ApuMoLPLKZQZSNd-cOS-7" value="MSW Server" style="rounded=1;whiteSpace=wrap;html=1;fillColor=#FFFFFF;strokeColor=#d79b00;" vertex="1" parent="1">
                    <mxGeometry x="230" y="465" width="120" height="60" as="geometry"/>
                </mxCell>
                <mxCell id="6ApuMoLPLKZQZSNd-cOS-8" style="edgeStyle=orthogonalEdgeStyle;html=1;" edge="1" parent="1" source="6ApuMoLPLKZQZSNd-cOS-9" target="6ApuMoLPLKZQZSNd-cOS-7">
                    <mxGeometry relative="1" as="geometry">
                        <Array as="points">
                            <mxPoint x="290" y="440"/>
                        </Array>
                    </mxGeometry>
                </mxCell>
                <mxCell id="6ApuMoLPLKZQZSNd-cOS-13" style="edgeStyle=orthogonalEdgeStyle;html=1;" edge="1" parent="1" source="6ApuMoLPLKZQZSNd-cOS-9" target="6ApuMoLPLKZQZSNd-cOS-12">
                    <mxGeometry relative="1" as="geometry"/>
                </mxCell>
                <mxCell id="6ApuMoLPLKZQZSNd-cOS-9" value="Server Component" style="rounded=1;whiteSpace=wrap;html=1;" vertex="1" parent="1">
                    <mxGeometry x="370" y="410" width="120" height="60" as="geometry"/>
                </mxCell>
                <mxCell id="6ApuMoLPLKZQZSNd-cOS-10" value="Backend" style="rounded=1;whiteSpace=wrap;html=1;fillColor=none;strokeColor=none;" vertex="1" parent="1">
                    <mxGeometry x="210" y="390" width="80" height="30" as="geometry"/>
                </mxCell>
                <mxCell id="6ApuMoLPLKZQZSNd-cOS-11" style="edgeStyle=orthogonalEdgeStyle;html=1;" edge="1" parent="1" source="6ApuMoLPLKZQZSNd-cOS-3" target="6ApuMoLPLKZQZSNd-cOS-9">
                    <mxGeometry relative="1" as="geometry"/>
                </mxCell>
                <mxCell id="6ApuMoLPLKZQZSNd-cOS-12" value="3rd party API" style="rounded=1;whiteSpace=wrap;html=1;" vertex="1" parent="1">
                    <mxGeometry x="370" y="560" width="120" height="60" as="geometry"/>
                </mxCell>
                <mxCell id="6ApuMoLPLKZQZSNd-cOS-15" value="Next.js" style="rounded=1;whiteSpace=wrap;html=1;fillColor=none;strokeColor=none;" vertex="1" parent="1">
                    <mxGeometry x="60" y="160" width="80" height="30" as="geometry"/>
                </mxCell>
                <mxCell id="6ApuMoLPLKZQZSNd-cOS-16" value="MSW Handler" style="rounded=1;whiteSpace=wrap;html=1;fillColor=#FFFFFF;strokeColor=#d79b00;" vertex="1" parent="1">
                    <mxGeometry x="70" y="360" width="120" height="60" as="geometry"/>
                </mxCell>
                <mxCell id="6ApuMoLPLKZQZSNd-cOS-18" value="" style="endArrow=classic;html=1;dashed=1;edgeStyle=orthogonalEdgeStyle;dashPattern=1 2;" edge="1" parent="1" source="6ApuMoLPLKZQZSNd-cOS-1" target="6ApuMoLPLKZQZSNd-cOS-16">
                    <mxGeometry width="50" height="50" relative="1" as="geometry">
                        <mxPoint x="270" y="400" as="sourcePoint"/>
                        <mxPoint x="320" y="350" as="targetPoint"/>
                        <Array as="points">
                            <mxPoint x="130" y="300"/>
                        </Array>
                    </mxGeometry>
                </mxCell>
                <mxCell id="6ApuMoLPLKZQZSNd-cOS-19" value="&lt;font color=&quot;#ff3333&quot;&gt;X&lt;/font&gt;" style="rounded=1;whiteSpace=wrap;html=1;fillColor=none;strokeColor=none;fontSize=50;" vertex="1" parent="1">
                    <mxGeometry x="390" y="310" width="80" height="30" as="geometry"/>
                </mxCell>
                <mxCell id="6ApuMoLPLKZQZSNd-cOS-20" value="&lt;font color=&quot;#ff3333&quot;&gt;X&lt;/font&gt;" style="rounded=1;whiteSpace=wrap;html=1;fillColor=none;strokeColor=none;fontSize=50;" vertex="1" parent="1">
                    <mxGeometry x="390" y="495" width="80" height="30" as="geometry"/>
                </mxCell>
            </root>
        </mxGraphModel>
    </diagram>
    <diagram id="N9LBY9H-_IPR_rTldVS1" name="Page-5">
        <mxGraphModel dx="1000" dy="493" grid="0" gridSize="10" guides="1" tooltips="1" connect="1" arrows="1" fold="1" page="0" pageScale="1" pageWidth="850" pageHeight="1100" math="0" shadow="0">
            <root>
                <mxCell id="0"/>
                <mxCell id="1" parent="0"/>
                <mxCell id="tL__BjupqfjAhLSQXOuL-58" value="" style="rounded=0;whiteSpace=wrap;html=1;fillColor=#f5f5f5;fontColor=#333333;strokeColor=#666666;opacity=30;" parent="1" vertex="1">
                    <mxGeometry x="180" y="160" width="410" height="460" as="geometry"/>
                </mxCell>
                <mxCell id="tL__BjupqfjAhLSQXOuL-46" value="" style="rounded=0;whiteSpace=wrap;html=1;fillColor=#f5f5f5;fontColor=#333333;strokeColor=#666666;opacity=30;" parent="1" vertex="1">
                    <mxGeometry x="190" y="370" width="255" height="240" as="geometry"/>
                </mxCell>
                <mxCell id="tL__BjupqfjAhLSQXOuL-42" value="" style="rounded=0;whiteSpace=wrap;html=1;fillColor=#f5f5f5;fontColor=#333333;strokeColor=#666666;opacity=30;" parent="1" vertex="1">
                    <mxGeometry x="205" y="210" width="240" height="140" as="geometry"/>
                </mxCell>
                <mxCell id="tL__BjupqfjAhLSQXOuL-8" value="" style="rounded=0;whiteSpace=wrap;html=1;fillColor=#f5f5f5;fontColor=#333333;strokeColor=#666666;opacity=30;" parent="1" vertex="1">
                    <mxGeometry x="460" y="240" width="240" height="270" as="geometry"/>
                </mxCell>
                <mxCell id="tL__BjupqfjAhLSQXOuL-2" value="User" style="rounded=1;whiteSpace=wrap;html=1;fillColor=#d5e8d4;strokeColor=#82b366;" parent="1" vertex="1">
                    <mxGeometry x="265" y="250" width="120" height="80" as="geometry"/>
                </mxCell>
                <mxCell id="tL__BjupqfjAhLSQXOuL-43" style="edgeStyle=none;html=1;startArrow=none;startFill=0;" parent="1" source="tL__BjupqfjAhLSQXOuL-3" target="tL__BjupqfjAhLSQXOuL-2" edge="1">
                    <mxGeometry relative="1" as="geometry">
                        <mxPoint x="420" y="320" as="targetPoint"/>
                    </mxGeometry>
                </mxCell>
                <mxCell id="tL__BjupqfjAhLSQXOuL-55" style="edgeStyle=none;html=1;startArrow=none;startFill=0;endArrow=classic;endFill=1;" parent="1" source="tL__BjupqfjAhLSQXOuL-3" target="tL__BjupqfjAhLSQXOuL-6" edge="1">
                    <mxGeometry relative="1" as="geometry"/>
                </mxCell>
                <mxCell id="tL__BjupqfjAhLSQXOuL-3" value="UserDocument" style="rounded=1;whiteSpace=wrap;html=1;fillColor=#fff2cc;strokeColor=#d6b656;" parent="1" vertex="1">
                    <mxGeometry x="530" y="280" width="120" height="80" as="geometry"/>
                </mxCell>
                <mxCell id="tL__BjupqfjAhLSQXOuL-6" value="JSON" style="rounded=1;whiteSpace=wrap;html=1;fillColor=#ffe6cc;strokeColor=#d79b00;" parent="1" vertex="1">
                    <mxGeometry x="730" y="330" width="120" height="80" as="geometry"/>
                </mxCell>
                <mxCell id="tL__BjupqfjAhLSQXOuL-12" value="Course" style="rounded=1;whiteSpace=wrap;html=1;fillColor=#d5e8d4;strokeColor=#82b366;" parent="1" vertex="1">
                    <mxGeometry x="305" y="410" width="120" height="80" as="geometry"/>
                </mxCell>
                <mxCell id="tL__BjupqfjAhLSQXOuL-52" style="edgeStyle=none;html=1;startArrow=none;startFill=0;endArrow=classic;endFill=1;" parent="1" source="tL__BjupqfjAhLSQXOuL-14" target="tL__BjupqfjAhLSQXOuL-12" edge="1">
                    <mxGeometry relative="1" as="geometry"/>
                </mxCell>
                <mxCell id="tL__BjupqfjAhLSQXOuL-56" style="edgeStyle=none;html=1;startArrow=none;startFill=0;endArrow=classic;endFill=1;" parent="1" source="tL__BjupqfjAhLSQXOuL-14" target="tL__BjupqfjAhLSQXOuL-6" edge="1">
                    <mxGeometry relative="1" as="geometry"/>
                </mxCell>
                <mxCell id="tL__BjupqfjAhLSQXOuL-14" value="AddCourseRequest" style="rounded=1;whiteSpace=wrap;html=1;fillColor=#fff2cc;strokeColor=#d6b656;" parent="1" vertex="1">
                    <mxGeometry x="530" y="390" width="120" height="80" as="geometry"/>
                </mxCell>
                <mxCell id="tL__BjupqfjAhLSQXOuL-23" value="Data Transfer Bounded Context" style="rounded=0;whiteSpace=wrap;html=1;fillColor=none;strokeColor=none;" parent="1" vertex="1">
                    <mxGeometry x="460" y="240" width="240" height="30" as="geometry"/>
                </mxCell>
                <mxCell id="tL__BjupqfjAhLSQXOuL-45" value="Access Control Boundex Context" style="rounded=0;whiteSpace=wrap;html=1;fillColor=none;strokeColor=none;" parent="1" vertex="1">
                    <mxGeometry x="205" y="210" width="240" height="30" as="geometry"/>
                </mxCell>
                <mxCell id="tL__BjupqfjAhLSQXOuL-47" value="Cousre Management Boundex Context" style="rounded=0;whiteSpace=wrap;html=1;fillColor=none;strokeColor=none;" parent="1" vertex="1">
                    <mxGeometry x="190" y="370" width="250" height="30" as="geometry"/>
                </mxCell>
                <mxCell id="tL__BjupqfjAhLSQXOuL-54" style="edgeStyle=none;html=1;startArrow=none;startFill=0;endArrow=classic;endFill=1;" parent="1" source="tL__BjupqfjAhLSQXOuL-49" target="tL__BjupqfjAhLSQXOuL-12" edge="1">
                    <mxGeometry relative="1" as="geometry"/>
                </mxCell>
                <mxCell id="tL__BjupqfjAhLSQXOuL-49" value="AddCourseForm" style="rounded=1;whiteSpace=wrap;html=1;fillColor=#d5e8d4;strokeColor=#82b366;" parent="1" vertex="1">
                    <mxGeometry x="225" y="510" width="120" height="80" as="geometry"/>
                </mxCell>
                <mxCell id="tL__BjupqfjAhLSQXOuL-59" value="Domain Models" style="rounded=0;whiteSpace=wrap;html=1;fillColor=none;strokeColor=none;" parent="1" vertex="1">
                    <mxGeometry x="180" y="160" width="410" height="30" as="geometry"/>
                </mxCell>
                <mxCell id="tL__BjupqfjAhLSQXOuL-60" value="" style="rounded=0;whiteSpace=wrap;html=1;fillColor=#f5f5f5;fontColor=#333333;strokeColor=#666666;opacity=30;" parent="1" vertex="1">
                    <mxGeometry x="460" y="570" width="240" height="270" as="geometry"/>
                </mxCell>
                <mxCell id="tL__BjupqfjAhLSQXOuL-61" style="edgeStyle=none;html=1;startArrow=none;startFill=0;endArrow=classic;endFill=1;" parent="1" source="tL__BjupqfjAhLSQXOuL-62" edge="1">
                    <mxGeometry relative="1" as="geometry">
                        <mxPoint x="730" y="685" as="targetPoint"/>
                    </mxGeometry>
                </mxCell>
                <mxCell id="tL__BjupqfjAhLSQXOuL-62" value="UserDocument" style="rounded=1;whiteSpace=wrap;html=1;fillColor=#fff2cc;strokeColor=#d6b656;" parent="1" vertex="1">
                    <mxGeometry x="530" y="610" width="120" height="80" as="geometry"/>
                </mxCell>
                <mxCell id="tL__BjupqfjAhLSQXOuL-63" style="edgeStyle=none;html=1;startArrow=none;startFill=0;endArrow=classic;endFill=1;" parent="1" source="tL__BjupqfjAhLSQXOuL-64" edge="1">
                    <mxGeometry relative="1" as="geometry">
                        <mxPoint x="730" y="718" as="targetPoint"/>
                    </mxGeometry>
                </mxCell>
                <mxCell id="tL__BjupqfjAhLSQXOuL-64" value="AddCourseRequest" style="rounded=1;whiteSpace=wrap;html=1;fillColor=#fff2cc;strokeColor=#d6b656;" parent="1" vertex="1">
                    <mxGeometry x="530" y="720" width="120" height="80" as="geometry"/>
                </mxCell>
                <mxCell id="tL__BjupqfjAhLSQXOuL-65" value="Data Transfer Bounded Context" style="rounded=0;whiteSpace=wrap;html=1;fillColor=none;strokeColor=none;" parent="1" vertex="1">
                    <mxGeometry x="460" y="570" width="240" height="30" as="geometry"/>
                </mxCell>
                <mxCell id="tL__BjupqfjAhLSQXOuL-66" value="" style="rounded=0;whiteSpace=wrap;html=1;fillColor=#f5f5f5;fontColor=#333333;strokeColor=#666666;opacity=30;" parent="1" vertex="1">
                    <mxGeometry x="940" y="190" width="440" height="500" as="geometry"/>
                </mxCell>
                <mxCell id="tL__BjupqfjAhLSQXOuL-67" value="" style="rounded=0;whiteSpace=wrap;html=1;fillColor=#f5f5f5;fontColor=#333333;strokeColor=#666666;opacity=30;" parent="1" vertex="1">
                    <mxGeometry x="960" y="370" width="400" height="300" as="geometry"/>
                </mxCell>
                <mxCell id="tL__BjupqfjAhLSQXOuL-68" value="" style="rounded=0;whiteSpace=wrap;html=1;fillColor=#f5f5f5;fontColor=#333333;strokeColor=#666666;opacity=30;" parent="1" vertex="1">
                    <mxGeometry x="960" y="240" width="400" height="110" as="geometry"/>
                </mxCell>
                <mxCell id="tL__BjupqfjAhLSQXOuL-70" value="User" style="rounded=1;whiteSpace=wrap;html=1;fillColor=#d5e8d4;strokeColor=#82b366;" parent="1" vertex="1">
                    <mxGeometry x="1120" y="280" width="120" height="50" as="geometry"/>
                </mxCell>
                <mxCell id="tL__BjupqfjAhLSQXOuL-71" style="edgeStyle=none;html=1;startArrow=none;startFill=0;" parent="1" source="tL__BjupqfjAhLSQXOuL-73" target="tL__BjupqfjAhLSQXOuL-70" edge="1">
                    <mxGeometry relative="1" as="geometry">
                        <mxPoint x="1190" y="320" as="targetPoint"/>
                    </mxGeometry>
                </mxCell>
                <mxCell id="tL__BjupqfjAhLSQXOuL-72" style="edgeStyle=none;html=1;startArrow=none;startFill=0;endArrow=classic;endFill=1;" parent="1" source="tL__BjupqfjAhLSQXOuL-73" target="tL__BjupqfjAhLSQXOuL-74" edge="1">
                    <mxGeometry relative="1" as="geometry"/>
                </mxCell>
                <mxCell id="tL__BjupqfjAhLSQXOuL-73" value="UserDocument" style="rounded=1;whiteSpace=wrap;html=1;fillColor=#fff2cc;strokeColor=#d6b656;" parent="1" vertex="1">
                    <mxGeometry x="1300" y="280" width="120" height="50" as="geometry"/>
                </mxCell>
                <mxCell id="tL__BjupqfjAhLSQXOuL-74" value="JSON" style="rounded=1;whiteSpace=wrap;html=1;fillColor=#ffe6cc;strokeColor=#d79b00;" parent="1" vertex="1">
                    <mxGeometry x="1490" y="430" width="120" height="50" as="geometry"/>
                </mxCell>
                <mxCell id="tL__BjupqfjAhLSQXOuL-75" value="Course" style="rounded=1;whiteSpace=wrap;html=1;fillColor=#d5e8d4;strokeColor=#82b366;" parent="1" vertex="1">
                    <mxGeometry x="980" y="510" width="120" height="50" as="geometry"/>
                </mxCell>
                <mxCell id="tL__BjupqfjAhLSQXOuL-77" style="edgeStyle=none;html=1;startArrow=none;startFill=0;endArrow=classic;endFill=1;" parent="1" source="tL__BjupqfjAhLSQXOuL-78" target="tL__BjupqfjAhLSQXOuL-74" edge="1">
                    <mxGeometry relative="1" as="geometry"/>
                </mxCell>
                <mxCell id="tL__BjupqfjAhLSQXOuL-94" style="edgeStyle=none;html=1;startArrow=none;startFill=0;endArrow=classic;endFill=1;" parent="1" source="tL__BjupqfjAhLSQXOuL-78" target="tL__BjupqfjAhLSQXOuL-83" edge="1">
                    <mxGeometry relative="1" as="geometry"/>
                </mxCell>
                <mxCell id="tL__BjupqfjAhLSQXOuL-78" value="AddCourseRequest" style="rounded=1;whiteSpace=wrap;html=1;fillColor=#fff2cc;strokeColor=#d6b656;" parent="1" vertex="1">
                    <mxGeometry x="1300" y="430" width="120" height="50" as="geometry"/>
                </mxCell>
                <mxCell id="tL__BjupqfjAhLSQXOuL-80" value="Access Control Boundex Context" style="rounded=0;whiteSpace=wrap;html=1;fillColor=none;strokeColor=none;" parent="1" vertex="1">
                    <mxGeometry x="960" y="240" width="400" height="30" as="geometry"/>
                </mxCell>
                <mxCell id="tL__BjupqfjAhLSQXOuL-81" value="Cousre Management Boundex Context" style="rounded=0;whiteSpace=wrap;html=1;fillColor=none;strokeColor=none;" parent="1" vertex="1">
                    <mxGeometry x="960" y="370" width="400" height="30" as="geometry"/>
                </mxCell>
                <mxCell id="tL__BjupqfjAhLSQXOuL-82" style="edgeStyle=none;html=1;startArrow=none;startFill=0;endArrow=classic;endFill=1;" parent="1" source="tL__BjupqfjAhLSQXOuL-83" target="tL__BjupqfjAhLSQXOuL-75" edge="1">
                    <mxGeometry relative="1" as="geometry"/>
                </mxCell>
                <mxCell id="tL__BjupqfjAhLSQXOuL-83" value="AddCourseForm" style="rounded=1;whiteSpace=wrap;html=1;fillColor=#d5e8d4;strokeColor=#82b366;" parent="1" vertex="1">
                    <mxGeometry x="1120" y="430" width="120" height="50" as="geometry"/>
                </mxCell>
                <mxCell id="tL__BjupqfjAhLSQXOuL-84" value="Domain Models" style="rounded=0;whiteSpace=wrap;html=1;fillColor=none;strokeColor=none;" parent="1" vertex="1">
                    <mxGeometry x="950" y="190" width="410" height="30" as="geometry"/>
                </mxCell>
                <mxCell id="tL__BjupqfjAhLSQXOuL-98" style="edgeStyle=none;html=1;startArrow=none;startFill=0;endArrow=classic;endFill=1;" parent="1" source="tL__BjupqfjAhLSQXOuL-95" target="tL__BjupqfjAhLSQXOuL-75" edge="1">
                    <mxGeometry relative="1" as="geometry"/>
                </mxCell>
                <mxCell id="tL__BjupqfjAhLSQXOuL-95" value="UpdateCourseForm" style="rounded=1;whiteSpace=wrap;html=1;fillColor=#d5e8d4;strokeColor=#82b366;" parent="1" vertex="1">
                    <mxGeometry x="1120" y="580" width="120" height="50" as="geometry"/>
                </mxCell>
                <mxCell id="tL__BjupqfjAhLSQXOuL-97" style="edgeStyle=none;html=1;startArrow=none;startFill=0;endArrow=classic;endFill=1;" parent="1" source="tL__BjupqfjAhLSQXOuL-96" target="tL__BjupqfjAhLSQXOuL-95" edge="1">
                    <mxGeometry relative="1" as="geometry"/>
                </mxCell>
                <mxCell id="tL__BjupqfjAhLSQXOuL-99" style="edgeStyle=none;html=1;startArrow=none;startFill=0;endArrow=classic;endFill=1;" parent="1" source="tL__BjupqfjAhLSQXOuL-96" target="tL__BjupqfjAhLSQXOuL-74" edge="1">
                    <mxGeometry relative="1" as="geometry"/>
                </mxCell>
                <mxCell id="tL__BjupqfjAhLSQXOuL-96" value="GetCourseResponse" style="rounded=1;whiteSpace=wrap;html=1;fillColor=#fff2cc;strokeColor=#d6b656;" parent="1" vertex="1">
                    <mxGeometry x="1300" y="580" width="120" height="50" as="geometry"/>
                </mxCell>
                <mxCell id="tL__BjupqfjAhLSQXOuL-101" value="" style="rounded=0;whiteSpace=wrap;html=1;fillColor=#f5f5f5;fontColor=#333333;strokeColor=#666666;opacity=30;" parent="1" vertex="1">
                    <mxGeometry x="1720" y="200" width="440" height="500" as="geometry"/>
                </mxCell>
                <mxCell id="tL__BjupqfjAhLSQXOuL-102" value="" style="rounded=0;whiteSpace=wrap;html=1;fillColor=#f5f5f5;fontColor=#333333;strokeColor=#666666;opacity=30;" parent="1" vertex="1">
                    <mxGeometry x="1740" y="380" width="400" height="300" as="geometry"/>
                </mxCell>
                <mxCell id="tL__BjupqfjAhLSQXOuL-103" value="" style="rounded=0;whiteSpace=wrap;html=1;fillColor=#f5f5f5;fontColor=#333333;strokeColor=#666666;opacity=30;" parent="1" vertex="1">
                    <mxGeometry x="1740" y="250" width="400" height="110" as="geometry"/>
                </mxCell>
                <mxCell id="tL__BjupqfjAhLSQXOuL-104" value="User" style="rounded=1;whiteSpace=wrap;html=1;fillColor=#d5e8d4;strokeColor=#82b366;" parent="1" vertex="1">
                    <mxGeometry x="1900" y="290" width="120" height="50" as="geometry"/>
                </mxCell>
                <mxCell id="tL__BjupqfjAhLSQXOuL-105" style="edgeStyle=none;html=1;startArrow=none;startFill=0;" parent="1" source="tL__BjupqfjAhLSQXOuL-107" target="tL__BjupqfjAhLSQXOuL-104" edge="1">
                    <mxGeometry relative="1" as="geometry">
                        <mxPoint x="1970" y="330" as="targetPoint"/>
                    </mxGeometry>
                </mxCell>
                <mxCell id="tL__BjupqfjAhLSQXOuL-106" style="edgeStyle=none;html=1;startArrow=none;startFill=0;endArrow=classic;endFill=1;" parent="1" source="tL__BjupqfjAhLSQXOuL-107" target="tL__BjupqfjAhLSQXOuL-108" edge="1">
                    <mxGeometry relative="1" as="geometry"/>
                </mxCell>
                <mxCell id="tL__BjupqfjAhLSQXOuL-107" value="UserDocument" style="rounded=1;whiteSpace=wrap;html=1;fillColor=#fff2cc;strokeColor=#d6b656;" parent="1" vertex="1">
                    <mxGeometry x="2080" y="290" width="120" height="50" as="geometry"/>
                </mxCell>
                <mxCell id="tL__BjupqfjAhLSQXOuL-108" value="Binary&lt;br&gt;01101001110011" style="rounded=1;whiteSpace=wrap;html=1;fillColor=#ffe6cc;strokeColor=#d79b00;" parent="1" vertex="1">
                    <mxGeometry x="2270" y="440" width="120" height="50" as="geometry"/>
                </mxCell>
                <mxCell id="tL__BjupqfjAhLSQXOuL-109" value="Course" style="rounded=1;whiteSpace=wrap;html=1;fillColor=#d5e8d4;strokeColor=#82b366;" parent="1" vertex="1">
                    <mxGeometry x="1760" y="520" width="120" height="50" as="geometry"/>
                </mxCell>
                <mxCell id="tL__BjupqfjAhLSQXOuL-110" style="edgeStyle=none;html=1;startArrow=none;startFill=0;endArrow=classic;endFill=1;" parent="1" source="tL__BjupqfjAhLSQXOuL-112" target="tL__BjupqfjAhLSQXOuL-108" edge="1">
                    <mxGeometry relative="1" as="geometry"/>
                </mxCell>
                <mxCell id="tL__BjupqfjAhLSQXOuL-111" style="edgeStyle=none;html=1;startArrow=none;startFill=0;endArrow=classic;endFill=1;" parent="1" source="tL__BjupqfjAhLSQXOuL-112" target="tL__BjupqfjAhLSQXOuL-116" edge="1">
                    <mxGeometry relative="1" as="geometry"/>
                </mxCell>
                <mxCell id="tL__BjupqfjAhLSQXOuL-112" value="AddCourseRequest" style="rounded=1;whiteSpace=wrap;html=1;fillColor=#fff2cc;strokeColor=#d6b656;" parent="1" vertex="1">
                    <mxGeometry x="2080" y="440" width="120" height="50" as="geometry"/>
                </mxCell>
                <mxCell id="tL__BjupqfjAhLSQXOuL-113" value="Access Control Boundex Context" style="rounded=0;whiteSpace=wrap;html=1;fillColor=none;strokeColor=none;" parent="1" vertex="1">
                    <mxGeometry x="1740" y="250" width="400" height="30" as="geometry"/>
                </mxCell>
                <mxCell id="tL__BjupqfjAhLSQXOuL-114" value="Cousre Management Boundex Context" style="rounded=0;whiteSpace=wrap;html=1;fillColor=none;strokeColor=none;" parent="1" vertex="1">
                    <mxGeometry x="1740" y="380" width="400" height="30" as="geometry"/>
                </mxCell>
                <mxCell id="tL__BjupqfjAhLSQXOuL-115" style="edgeStyle=none;html=1;startArrow=none;startFill=0;endArrow=classic;endFill=1;" parent="1" source="tL__BjupqfjAhLSQXOuL-116" target="tL__BjupqfjAhLSQXOuL-109" edge="1">
                    <mxGeometry relative="1" as="geometry"/>
                </mxCell>
                <mxCell id="tL__BjupqfjAhLSQXOuL-116" value="AddCourseForm" style="rounded=1;whiteSpace=wrap;html=1;fillColor=#d5e8d4;strokeColor=#82b366;" parent="1" vertex="1">
                    <mxGeometry x="1900" y="440" width="120" height="50" as="geometry"/>
                </mxCell>
                <mxCell id="tL__BjupqfjAhLSQXOuL-117" value="Domain Models" style="rounded=0;whiteSpace=wrap;html=1;fillColor=none;strokeColor=none;" parent="1" vertex="1">
                    <mxGeometry x="1730" y="200" width="410" height="30" as="geometry"/>
                </mxCell>
                <mxCell id="tL__BjupqfjAhLSQXOuL-118" style="edgeStyle=none;html=1;startArrow=none;startFill=0;endArrow=classic;endFill=1;" parent="1" source="tL__BjupqfjAhLSQXOuL-119" target="tL__BjupqfjAhLSQXOuL-109" edge="1">
                    <mxGeometry relative="1" as="geometry"/>
                </mxCell>
                <mxCell id="tL__BjupqfjAhLSQXOuL-119" value="UpdateCourseForm" style="rounded=1;whiteSpace=wrap;html=1;fillColor=#d5e8d4;strokeColor=#82b366;" parent="1" vertex="1">
                    <mxGeometry x="1900" y="590" width="120" height="50" as="geometry"/>
                </mxCell>
                <mxCell id="tL__BjupqfjAhLSQXOuL-120" style="edgeStyle=none;html=1;startArrow=none;startFill=0;endArrow=classic;endFill=1;" parent="1" source="tL__BjupqfjAhLSQXOuL-122" target="tL__BjupqfjAhLSQXOuL-119" edge="1">
                    <mxGeometry relative="1" as="geometry"/>
                </mxCell>
                <mxCell id="tL__BjupqfjAhLSQXOuL-121" style="edgeStyle=none;html=1;startArrow=none;startFill=0;endArrow=classic;endFill=1;" parent="1" source="tL__BjupqfjAhLSQXOuL-122" target="tL__BjupqfjAhLSQXOuL-108" edge="1">
                    <mxGeometry relative="1" as="geometry"/>
                </mxCell>
                <mxCell id="tL__BjupqfjAhLSQXOuL-122" value="GetCourseResponse" style="rounded=1;whiteSpace=wrap;html=1;fillColor=#fff2cc;strokeColor=#d6b656;" parent="1" vertex="1">
                    <mxGeometry x="2080" y="590" width="120" height="50" as="geometry"/>
                </mxCell>
                <mxCell id="tL__BjupqfjAhLSQXOuL-125" style="edgeStyle=none;html=1;startArrow=classic;startFill=1;endArrow=classic;endFill=1;entryX=1.006;entryY=0.474;entryDx=0;entryDy=0;entryPerimeter=0;" parent="1" source="tL__BjupqfjAhLSQXOuL-123" target="tL__BjupqfjAhLSQXOuL-124" edge="1">
                    <mxGeometry relative="1" as="geometry"/>
                </mxCell>
                <mxCell id="tL__BjupqfjAhLSQXOuL-126" style="html=1;startArrow=classic;startFill=1;endArrow=classic;endFill=1;exitX=0.038;exitY=0.721;exitDx=0;exitDy=0;exitPerimeter=0;entryX=0.998;entryY=0.686;entryDx=0;entryDy=0;entryPerimeter=0;" parent="1" source="tL__BjupqfjAhLSQXOuL-123" target="tL__BjupqfjAhLSQXOuL-124" edge="1">
                    <mxGeometry relative="1" as="geometry"/>
                </mxCell>
                <mxCell id="tL__BjupqfjAhLSQXOuL-127" style="edgeStyle=none;html=1;entryX=0.965;entryY=0.259;entryDx=0;entryDy=0;entryPerimeter=0;startArrow=classic;startFill=1;endArrow=classic;endFill=1;exitX=0.026;exitY=0.352;exitDx=0;exitDy=0;exitPerimeter=0;" parent="1" source="tL__BjupqfjAhLSQXOuL-123" target="tL__BjupqfjAhLSQXOuL-124" edge="1">
                    <mxGeometry relative="1" as="geometry"/>
                </mxCell>
                <mxCell id="tL__BjupqfjAhLSQXOuL-130" style="edgeStyle=none;html=1;startArrow=none;startFill=0;endArrow=classic;endFill=1;exitX=0.095;exitY=0.2;exitDx=0;exitDy=0;exitPerimeter=0;" parent="1" source="tL__BjupqfjAhLSQXOuL-123" edge="1">
                    <mxGeometry relative="1" as="geometry">
                        <mxPoint x="2671" y="392" as="targetPoint"/>
                    </mxGeometry>
                </mxCell>
                <mxCell id="tL__BjupqfjAhLSQXOuL-123" value="User&lt;br&gt;Document" style="ellipse;whiteSpace=wrap;html=1;rounded=0;fillColor=#d5e8d4;opacity=30;strokeColor=#82b366;" parent="1" vertex="1">
                    <mxGeometry x="2743" y="374" width="61" height="126" as="geometry"/>
                </mxCell>
                <mxCell id="tL__BjupqfjAhLSQXOuL-124" value="User" style="ellipse;whiteSpace=wrap;html=1;rounded=0;fillColor=#dae8fc;opacity=30;strokeColor=#6c8ebf;" parent="1" vertex="1">
                    <mxGeometry x="2622" y="406" width="58" height="84" as="geometry"/>
                </mxCell>
            </root>
        </mxGraphModel>
    </diagram>
    <diagram id="sTkHWP8ZodPiPQIi8Ux6" name="Page-6">
        <mxGraphModel dx="695" dy="370" grid="0" gridSize="10" guides="1" tooltips="1" connect="1" arrows="1" fold="1" page="1" pageScale="1" pageWidth="850" pageHeight="1100" math="0" shadow="0">
            <root>
                <mxCell id="0"/>
                <mxCell id="1" parent="0"/>
                <mxCell id="F5xYoDvednzcmAIoolYr-1" value="" style="rounded=1;whiteSpace=wrap;html=1;fillColor=#f5f5f5;fontColor=#333333;strokeColor=#666666;" vertex="1" parent="1">
                    <mxGeometry x="70" y="210" width="160" height="230" as="geometry"/>
                </mxCell>
                <mxCell id="F5xYoDvednzcmAIoolYr-5" style="edgeStyle=orthogonalEdgeStyle;html=1;" edge="1" parent="1" source="F5xYoDvednzcmAIoolYr-2" target="F5xYoDvednzcmAIoolYr-4">
                    <mxGeometry relative="1" as="geometry">
                        <Array as="points">
                            <mxPoint x="280" y="320"/>
                        </Array>
                    </mxGeometry>
                </mxCell>
                <mxCell id="F5xYoDvednzcmAIoolYr-2" value="event" style="ellipse;whiteSpace=wrap;html=1;fillColor=#dae8fc;strokeColor=#6c8ebf;" vertex="1" parent="1">
                    <mxGeometry x="164" y="306" width="40" height="30" as="geometry"/>
                </mxCell>
                <mxCell id="F5xYoDvednzcmAIoolYr-6" style="edgeStyle=orthogonalEdgeStyle;html=1;" edge="1" parent="1" source="F5xYoDvednzcmAIoolYr-3" target="F5xYoDvednzcmAIoolYr-4">
                    <mxGeometry relative="1" as="geometry">
                        <mxPoint x="310" y="342" as="targetPoint"/>
                        <Array as="points">
                            <mxPoint x="150" y="340"/>
                            <mxPoint x="270" y="340"/>
                        </Array>
                    </mxGeometry>
                </mxCell>
                <mxCell id="F5xYoDvednzcmAIoolYr-3" value="state" style="ellipse;whiteSpace=wrap;html=1;fillColor=#d5e8d4;strokeColor=#82b366;" vertex="1" parent="1">
                    <mxGeometry x="120" y="370" width="60" height="40" as="geometry"/>
                </mxCell>
                <mxCell id="F5xYoDvednzcmAIoolYr-7" style="edgeStyle=orthogonalEdgeStyle;html=1;" edge="1" parent="1" source="F5xYoDvednzcmAIoolYr-14" target="F5xYoDvednzcmAIoolYr-3">
                    <mxGeometry relative="1" as="geometry">
                        <Array as="points">
                            <mxPoint x="320" y="480"/>
                            <mxPoint x="150" y="480"/>
                        </Array>
                    </mxGeometry>
                </mxCell>
                <mxCell id="F5xYoDvednzcmAIoolYr-4" value="" style="shape=cylinder3;whiteSpace=wrap;html=1;boundedLbl=1;backgroundOutline=1;size=15;fillColor=#fff2cc;strokeColor=#d6b656;" vertex="1" parent="1">
                    <mxGeometry x="260" y="360" width="60" height="80" as="geometry"/>
                </mxCell>
                <mxCell id="F5xYoDvednzcmAIoolYr-10" style="edgeStyle=orthogonalEdgeStyle;html=1;" edge="1" parent="1" source="F5xYoDvednzcmAIoolYr-8" target="F5xYoDvednzcmAIoolYr-4">
                    <mxGeometry relative="1" as="geometry">
                        <Array as="points">
                            <mxPoint x="300" y="270"/>
                        </Array>
                    </mxGeometry>
                </mxCell>
                <mxCell id="F5xYoDvednzcmAIoolYr-8" value="contracts" style="ellipse;whiteSpace=wrap;html=1;fillColor=#dae8fc;strokeColor=#6c8ebf;" vertex="1" parent="1">
                    <mxGeometry x="154" y="250" width="60" height="40" as="geometry"/>
                </mxCell>
                <mxCell id="F5xYoDvednzcmAIoolYr-11" style="edgeStyle=orthogonalEdgeStyle;html=1;" edge="1" parent="1" source="F5xYoDvednzcmAIoolYr-9" target="F5xYoDvednzcmAIoolYr-4">
                    <mxGeometry relative="1" as="geometry"/>
                </mxCell>
                <mxCell id="F5xYoDvednzcmAIoolYr-9" value="configs" style="ellipse;whiteSpace=wrap;html=1;fillColor=#dae8fc;strokeColor=#6c8ebf;" vertex="1" parent="1">
                    <mxGeometry x="90" y="280" width="60" height="40" as="geometry"/>
                </mxCell>
                <mxCell id="F5xYoDvednzcmAIoolYr-12" value="" style="shape=cylinder3;whiteSpace=wrap;html=1;boundedLbl=1;backgroundOutline=1;size=15;fillColor=#fff2cc;strokeColor=#d6b656;" vertex="1" parent="1">
                    <mxGeometry x="270" y="370" width="60" height="80" as="geometry"/>
                </mxCell>
                <mxCell id="F5xYoDvednzcmAIoolYr-13" value="" style="shape=cylinder3;whiteSpace=wrap;html=1;boundedLbl=1;backgroundOutline=1;size=15;fillColor=#fff2cc;strokeColor=#d6b656;" vertex="1" parent="1">
                    <mxGeometry x="280" y="380" width="60" height="80" as="geometry"/>
                </mxCell>
                <mxCell id="F5xYoDvednzcmAIoolYr-14" value="pure&lt;br&gt;functions" style="shape=cylinder3;whiteSpace=wrap;html=1;boundedLbl=1;backgroundOutline=1;size=15;fillColor=#fff2cc;strokeColor=#d6b656;" vertex="1" parent="1">
                    <mxGeometry x="290" y="390" width="60" height="80" as="geometry"/>
                </mxCell>
                <mxCell id="F5xYoDvednzcmAIoolYr-15" value="&lt;span style=&quot;color: rgb(51, 51, 51);&quot;&gt;UI&amp;nbsp;&lt;/span&gt;&lt;span style=&quot;color: rgb(51, 51, 51);&quot;&gt;(Component)&lt;/span&gt;" style="rounded=0;whiteSpace=wrap;html=1;fillColor=none;strokeColor=none;" vertex="1" parent="1">
                    <mxGeometry x="90" y="220" width="120" height="20" as="geometry"/>
                </mxCell>
            </root>
        </mxGraphModel>
    </diagram>
</mxfile>